<svg id="liö_logo" xmlns="http://www.w3.org/2000/svg" viewBox="0 0 1000 436.13"><defs><style>.cls-1{fill:#006579;}.cls-2{fill:#3b89a0;}</style></defs><title>Zeichenfläche 1</title><path class="cls-1" d="M354.38,207.63l3.92,0-.19,42.89,23.05.1v3.59l-27-.11Z"/><path class="cls-1" d="M382.17,255.27l-29-.13.21-48.54,6,0-.19,42.89,23.05.1Zm-27-2.17,24.92.1v-1.54l-23.05-.1.19-42.89H355.4Z"/><path class="cls-1" d="M395.14,239.53c.61,7.45,5.92,12.09,13.37,12.12A17.54,17.54,0,0,0,419.12,248l0,4.11a21.36,21.36,0,0,1-10.86,2.91c-9.7,0-16.86-6.75-16.82-16.58s7.14-16.47,15.68-16.43c7.64,0,14,5.52,13.93,14.89,0,1-.07,1.93-.14,2.7Zm22.17-3.06c-.16-8.47-6.12-11-10.36-11-5.26,0-10.61,3.61-11.67,10.93Z"/><path class="cls-1" d="M408.32,256.08h-.09c-10.37,0-17.88-7.45-17.83-17.6,0-10,7.18-17.46,16.63-17.46h.07a14.84,14.84,0,0,1,10.57,4.25,16,16,0,0,1,4.39,11.67c0,.81-.05,1.72-.15,2.79l-.08.94-25.53-.11c1,6.21,5.55,10,12.21,10.07a16.47,16.47,0,0,0,10-3.42l1.64-1.19,0,6.7-.49.3A22.41,22.41,0,0,1,408.32,256.08Zm-1.29-33c-8.28,0-14.54,6.62-14.58,15.42,0,9.11,6.45,15.5,15.79,15.54h.08a20.49,20.49,0,0,0,9.76-2.47V250a18.38,18.38,0,0,1-9.58,2.72c-8.1,0-13.74-5.16-14.39-13.07L394,238.5l25.91.11c0-.62.06-1.17.06-1.67a14,14,0,0,0-3.78-10.23,12.83,12.83,0,0,0-9.13-3.64Zm11.32,14.43-24.25-.1.17-1.17c1.18-8.16,7.19-11.8,12.63-11.8H407c5.14,0,11.21,3.18,11.37,12Zm-21.84-2.14,19.72.08c-.7-8.48-7.81-9-9.28-9h-.05C402.61,226.48,397.89,229.23,396.51,235.36Z"/><path class="cls-1" d="M455,223l4.31,0L447.61,237.7l13.16,16.88-4.5,0-5.56-7.15c-1.91-2.45-3.76-4.9-5.55-7.28H445c-1.87,2.43-3.81,4.92-5.74,7.35l-5.56,7-4.3,0,13.3-16.7-11.62-14.88,4.49,0,4.92,6.31c1.6,2.06,3.13,4.06,4.66,6.12h.13c1.55-2.05,3-4,4.78-6.14Z"/><path class="cls-1" d="M462.87,255.61l-7.1,0L449.9,248c-1.73-2.21-3.42-4.44-4.81-6.29-1.9,2.45-3.5,4.5-5,6.38l-5.86,7.37-6.92,0,14.11-17.73L429,221.82l7.11,0,5.22,6.71c1.17,1.51,2.52,3.27,3.92,5.13,1.4-1.83,2.67-3.46,4-5.16l5.21-6.6,6.91,0L448.92,237.7Zm-6.09-2.08h1.88l-12.35-15.85L457.18,224h-1.69l-4.6,5.81c-1.6,2-3.07,3.89-4.76,6.13l-.31.41h-1.16l-.3-.41c-1.65-2.22-3.28-4.33-4.65-6.1l-4.61-5.92h-1.88L444,237.75l-12.49,15.68h1.69l5.24-6.58c1.69-2.13,3.52-4.46,5.74-7.35l.31-.4h1.14l.31.41c1.5,2,3.49,4.65,5.54,7.26Z"/><path class="cls-1" d="M474.61,215a2.92,2.92,0,1,1,3-2.87A2.89,2.89,0,0,1,474.61,215Zm-1.9,8.09h3.79l-.13,31.59h-3.79Z"/><path class="cls-1" d="M477.39,255.67l-5.84,0,.14-33.64,5.84,0Zm-3.78-2.06h1.74l.12-29.54h-1.73Zm1-37.63h0a3.91,3.91,0,0,1-2.78-1.17,4,4,0,0,1-1.12-2.83,3.9,3.9,0,0,1,4-3.9h0a3.91,3.91,0,0,1,3.9,4,3.83,3.83,0,0,1-1.17,2.77A4,4,0,0,1,474.63,216Zm.06-5.84a1.87,1.87,0,0,0-1.93,1.85,2,2,0,0,0,.54,1.39,1.88,1.88,0,0,0,1.31.55h0a2,2,0,0,0,1.37-.54,1.91,1.91,0,0,0-1.3-3.25Z"/><path class="cls-1" d="M493.91,205.66l3.79,0-.13,31.4.06.06,16-13.93,4.88,0-16.24,14.06,17.77,17.54-5.07,0-17.39-17.28-.07.06-.07,17.14H493.7Z"/><path class="cls-1" d="M522.6,255.87l-8,0-16-15.91-.07,15.84-5.84,0,.22-51.11,5.84,0-.13,30.28,14.7-12.76,8,0-17.47,15.12Zm-7.16-2.09h2.14l-16.77-16.55,15-13h-1.76l-15.13,13.13Zm-20.71-.08h1.74l.08-16.55v-.08l.13-30.37h-1.74Z"/><path class="cls-1" d="M550.28,251.75a16.6,16.6,0,0,1-10.55,3.87,12.42,12.42,0,0,1-7.44-2.22,8.17,8.17,0,0,1-3.24-6.81,8.36,8.36,0,0,1,4-7.31,16.29,16.29,0,0,1,8.68-2.08,30.69,30.69,0,0,1,8.15,1.19v-3.66c0-3.08-.55-5.07-2.28-6.62a9.65,9.65,0,0,0-6.48-2,16.56,16.56,0,0,0-9.7,3v-3.79a19.27,19.27,0,0,1,10.1-2.78c3.78,0,6.86,1,9,2.8s3.19,4.64,3.18,8.49l-.06,13.67c0,2.7.62,4.69,3.19,4.7a4.16,4.16,0,0,0,2.06-.5l0,3.28a7.06,7.06,0,0,1-2.76.5,5.7,5.7,0,0,1-5.7-3.75Zm-.4-10.34a29.12,29.12,0,0,0-7.83-1.19c-4.5,0-9.13,1.37-9.15,6.06,0,4.11,3.51,5.92,7.36,5.94a15,15,0,0,0,9.59-3.68Z"/><path class="cls-1" d="M539.79,256.65h-.06a13.47,13.47,0,0,1-8.05-2.43,9.15,9.15,0,0,1-3.66-7.64,9.44,9.44,0,0,1,4.48-8.16c2.93-1.88,6.67-2.24,9.24-2.25a30.67,30.67,0,0,1,7.13.9v-2.34c0-2.95-.53-4.59-1.94-5.86a8.86,8.86,0,0,0-5.8-1.76A15.8,15.8,0,0,0,532,230l-1.63,1.18,0-6.37.48-.3a20,20,0,0,1,10.64-2.94c4,0,7.33,1.07,9.64,3.05s3.55,5.14,3.53,9.27l-.06,13.68a5.92,5.92,0,0,0,.5,2.84,1.65,1.65,0,0,0,1.67.83,3,3,0,0,0,1.56-.38l1.53-.84,0,5.68-.6.27a7.8,7.8,0,0,1-3.19.59,6.75,6.75,0,0,1-6.1-3.24A17.75,17.75,0,0,1,539.79,256.65Zm1.84-18.42a15.28,15.28,0,0,0-8,1.91,7.36,7.36,0,0,0-3.54,6.45,7.2,7.2,0,0,0,2.83,6,11.49,11.49,0,0,0,6.83,2h.06a15.49,15.49,0,0,0,9.81-3.62l.29-.25h1.23l.24.68a4.68,4.68,0,0,0,4.74,3.07,6.6,6.6,0,0,0,1.74-.2v-1.11a7,7,0,0,1-1,.09,3.7,3.7,0,0,1-3.44-1.86,7.58,7.58,0,0,1-.77-3.87l.06-13.68c0-3.5-.93-6.09-2.81-7.7s-4.81-2.54-8.32-2.55h-.08a18.19,18.19,0,0,0-9,2.34v1.33a18.31,18.31,0,0,1,8.68-2.2,10.62,10.62,0,0,1,7.15,2.28c1.88,1.69,2.64,3.83,2.63,7.4l0,5-1.29-.35a29.64,29.64,0,0,0-7.89-1.15Zm-1.32,15h0c-5.11,0-8.4-2.75-8.38-7,0-4.51,3.69-7.09,10.07-7.09h.1a29.88,29.88,0,0,1,8.12,1.24l.74.21,0,8.37-.35.3A15.92,15.92,0,0,1,540.31,253.24Zm1.65-12c-3,0-8,.67-8,5,0,3.6,3.26,4.9,6.34,4.91a13.7,13.7,0,0,0,8.55-3.13l0-5.87a27.92,27.92,0,0,0-6.81-.95Z"/><path class="cls-1" d="M571.67,206l3.78,0-.21,49.06-3.78,0Z"/><path class="cls-1" d="M576.27,256.1l-5.84,0,.21-51.11,5.84,0ZM572.49,254h1.73l.2-47h-1.73Z"/><path class="cls-1" d="M594.61,215.47a2.93,2.93,0,1,1,3-2.88A2.9,2.9,0,0,1,594.61,215.47Zm-1.9,8.08,3.79,0-.13,31.59-3.79,0Z"/><path class="cls-1" d="M597.39,256.19l-5.84,0,.14-33.64,5.84,0Zm-3.78-2.07h1.73l.13-29.54h-1.74Zm1-37.63h0a4,4,0,0,1-2.72-6.77,4,4,0,0,1,2.8-1.12h0a3.87,3.87,0,0,1,2.78,1.17,4,4,0,0,1-2.86,6.72Zm0-2.05h0a1.87,1.87,0,0,0,1.93-1.86,2,2,0,0,0-.54-1.38,1.84,1.84,0,0,0-1.32-.55,2,2,0,0,0-1.38.54,1.84,1.84,0,0,0-.55,1.31,1.87,1.87,0,0,0,1.85,1.94Z"/><path class="cls-1" d="M611.93,249.12a22.6,22.6,0,0,0,11.93,3.39c5.33,0,8.74-1.82,8.75-5.61,0-4.75-5.24-5.29-10.18-6.08-5.26-.86-11.23-2.42-11.2-8.84,0-6,5.11-9,12.3-9a24.85,24.85,0,0,1,11.36,2.75l0,4a22.08,22.08,0,0,0-11.48-3.26c-4.94,0-8.35,1.7-8.37,5.3,0,4.43,5.12,4.9,9.86,5.69,5.71.92,11.55,2.49,11.52,9.16,0,6.23-5.11,9.42-12.75,9.39a25,25,0,0,1-11.74-2.81Z"/><path class="cls-1" d="M623.76,257h-.12a25.85,25.85,0,0,1-12.23-2.94l-.53-.29,0-6.53,1.58,1a21.61,21.61,0,0,0,11.37,3.23,11.24,11.24,0,0,0,5.83-1.23,3.72,3.72,0,0,0,1.9-3.36c0-3.36-3.19-4.1-8.47-4.93l-.85-.14c-3.93-.64-12.1-2-12.06-9.86,0-6.19,5.08-10,13.22-10h.11a25.64,25.64,0,0,1,11.84,2.87l.53.29,0,6.46-1.57-1a20.88,20.88,0,0,0-10.93-3.09c-2.2,0-7.33.39-7.34,4.27,0,3,3,3.71,7.94,4.5l1.06.18c4.34.7,12.41,2,12.38,10.18a9.25,9.25,0,0,1-4,7.87C631.12,256.13,627.77,257,623.76,257Zm-10.82-4.44A24.54,24.54,0,0,0,623.65,255c3.6,0,6.62-.73,8.64-2.15a7.21,7.21,0,0,0,3.09-6.21c0-5.35-4.06-7.08-10.66-8.15l-1.06-.17c-4.54-.73-9.69-1.56-9.66-6.54,0-4,3.49-6.31,9.3-6.31h.1a23.47,23.47,0,0,1,10.45,2.51v-1.59A24.26,24.26,0,0,0,623.53,224h-.11c-7,0-11.14,3-11.16,8s4.11,6.81,10.34,7.83l.84.13c4.79.75,10.22,1.6,10.2,7a5.75,5.75,0,0,1-2.88,5.11,13.31,13.31,0,0,1-6.91,1.53A24.29,24.29,0,0,1,613,250.9Z"/><path class="cls-1" d="M674.77,253.82a19.13,19.13,0,0,1-9.45,2.34c-9.82-.05-16.66-7.07-16.62-16.45,0-9.56,7.26-16.6,17.08-16.55a18.86,18.86,0,0,1,8.6,2.09l0,4a16.54,16.54,0,0,0-8.72-2.61c-7.83,0-13.12,5.66-13.16,13.11s5.41,12.93,13,13a14.92,14.92,0,0,0,9.26-3Z"/><path class="cls-1" d="M665.41,257.18h-.09c-10.27,0-17.69-7.39-17.65-17.47s7.62-17.58,18-17.58h.1a19.88,19.88,0,0,1,9.06,2.21l.56.28,0,6.45-1.56-1a15.34,15.34,0,0,0-8.19-2.45c-7.1,0-12.09,4.94-12.12,12.08a11.86,11.86,0,0,0,3.34,8.58,12.22,12.22,0,0,0,8.68,3.35,13.84,13.84,0,0,0,8.63-2.76l1.66-1.29,0,6.8-.51.3A19.88,19.88,0,0,1,665.41,257.18Zm.28-33c-9.22,0-15.93,6.52-16,15.54s6.53,15.37,15.61,15.41a18.32,18.32,0,0,0,8.42-1.92v-1.58a16.41,16.41,0,0,1-8.15,2.09h-.08a14.28,14.28,0,0,1-10.11-3.95,13.84,13.84,0,0,1-3.95-10.05c0-8.19,6-14.12,14.11-14.12h.07a17,17,0,0,1,7.7,1.88v-1.6a18.06,18.06,0,0,0-7.57-1.7Z"/><path class="cls-1" d="M690.38,206.5l3.79,0-.1,21.89.13.07a17.74,17.74,0,0,1,12.16-5.15,10.69,10.69,0,0,1,8.08,3.24c1.91,2.07,2.8,4.77,2.78,9.46l-.08,19.64h-3.79l.08-18.95c0-4-.55-6-2-7.58a7.32,7.32,0,0,0-5.71-2.27c-4.43,0-8.48,2.34-11.64,5.6l-.1,23.11h-3.79Z"/><path class="cls-1" d="M718.16,256.7l-5.84,0,.08-20c0-3.66-.45-5.52-1.74-6.87a6.32,6.32,0,0,0-5-2c-3.63,0-7.36,1.76-10.62,5L695,256.6l-5.84,0,.22-51.11,5.84,0-.09,20.86a18.12,18.12,0,0,1,11.18-4.06h.07a11.74,11.74,0,0,1,8.83,3.58c2.16,2.33,3.08,5.36,3.06,10.15Zm-3.78-2.06h1.74L716.2,236c0-4.27-.71-6.81-2.51-8.75a9.66,9.66,0,0,0-7.33-2.92h-.07a16.9,16.9,0,0,0-11.39,4.88l-.52.48-1.33-.66.09-21.51H691.4l-.2,47h1.74L693,232l.29-.29c3.7-3.82,8.07-5.92,12.33-5.92h.06a8.36,8.36,0,0,1,6.46,2.61c1.66,1.75,2.3,4.07,2.29,8.28Z"/><path class="cls-1" d="M735.76,241c.61,7.46,5.91,12.1,13.36,12.13a17.58,17.58,0,0,0,10.61-3.61v4.11a21.42,21.42,0,0,1-10.87,2.9c-9.69,0-16.86-6.74-16.81-16.57s7.13-16.47,15.67-16.43c7.64,0,14,5.51,13.93,14.89,0,1-.07,1.92-.14,2.69Zm22.16-3c-.16-8.47-6.12-11-10.35-11-5.27,0-10.61,3.61-11.67,10.93Z"/><path class="cls-1" d="M748.94,257.54h-.09a18.21,18.21,0,0,1-12.77-4.91A17.33,17.33,0,0,1,731,239.94,17.93,17.93,0,0,1,736,227.33a16.25,16.25,0,0,1,11.69-4.85h.07a14.84,14.84,0,0,1,10.57,4.25,16,16,0,0,1,4.39,11.67c0,.81,0,1.72-.14,2.78l-.09.94-25.53-.1c1,6.21,5.55,10,12.22,10.07h.07a16.46,16.46,0,0,0,9.93-3.42l1.64-1.19,0,6.7-.49.3A22.37,22.37,0,0,1,748.94,257.54Zm-1.3-33a14.17,14.17,0,0,0-10.22,4.24A15.86,15.86,0,0,0,733.06,240a15.09,15.09,0,0,0,4.45,11.21,16.21,16.21,0,0,0,11.35,4.33,20.56,20.56,0,0,0,9.83-2.47v-1.6a18.16,18.16,0,0,1-9.58,2.72c-8.09,0-13.74-5.17-14.39-13.07l-.09-1.12,25.91.12c0-.62.07-1.17.07-1.68a14,14,0,0,0-3.79-10.22,12.83,12.83,0,0,0-9.13-3.64ZM759,239l-24.26-.1.17-1.17c1.18-8.16,7.19-11.81,12.64-11.81h.05c5.15,0,11.21,3.19,11.38,12Zm-21.84-2.14,19.71.08c-.69-8.48-7.81-9-9.28-9h0C743.22,227.93,738.5,230.69,737.13,236.82Z"/><path class="cls-1" d="M775,249.82a22.65,22.65,0,0,0,11.93,3.39c5.33,0,8.74-1.82,8.76-5.61,0-4.75-5.24-5.29-10.19-6.08-5.26-.86-11.22-2.43-11.19-8.85,0-6,5.11-9,12.3-9A24.78,24.78,0,0,1,798,226.42l0,4a22.07,22.07,0,0,0-11.47-3.26c-5,0-8.36,1.7-8.37,5.29,0,4.43,5.11,4.9,9.86,5.7,5.71.92,11.55,2.48,11.52,9.16,0,6.23-5.12,9.42-12.76,9.39A25,25,0,0,1,775,253.87Z"/><path class="cls-1" d="M786.85,257.7h-.12a25.86,25.86,0,0,1-12.24-2.94l-.52-.3,0-6.52,1.58,1A21.57,21.57,0,0,0,787,252.18a11.08,11.08,0,0,0,5.83-1.22,3.69,3.69,0,0,0,1.89-3.37c0-3.35-3.19-4.1-8.46-4.92l-.86-.14c-3.93-.64-12.09-2-12.06-9.86,0-6.19,5.09-10,13.22-10h.11a25.51,25.51,0,0,1,11.84,2.87l.54.29,0,6.46-1.57-1a21,21,0,0,0-10.93-3.1c-2.22,0-7.32.39-7.34,4.28,0,3,3,3.71,7.94,4.5l1.07.17c4.33.7,12.41,2,12.37,10.19a9.26,9.26,0,0,1-4,7.87C794.2,256.83,790.85,257.7,786.85,257.7ZM776,253.26a24.7,24.7,0,0,0,10.72,2.39c3.61,0,6.61-.73,8.63-2.16a7.18,7.18,0,0,0,3.09-6.2c0-5.35-4.06-7.09-10.66-8.15l-1-.17c-4.54-.73-9.69-1.56-9.67-6.54,0-4,3.5-6.32,9.31-6.32h.09a23.48,23.48,0,0,1,10.45,2.52V227a24.12,24.12,0,0,0-10.33-2.34h-.1c-7,0-11.15,3-11.17,8s4.12,6.81,10.34,7.83l.85.13c4.79.75,10.22,1.6,10.19,7a5.77,5.77,0,0,1-2.87,5.11,13.36,13.36,0,0,1-6.91,1.53A24.36,24.36,0,0,1,776,251.6Z"/><path class="cls-1" d="M311.56,284.5l3.92,0-.2,46.48h-3.92Z"/><path class="cls-1" d="M316.3,332l-6,0,.21-48.54,6,0ZM312.39,330h1.87l.19-44.43h-1.87Z"/><path class="cls-1" d="M332.94,299.49h3.79l0,4.43.13.07A18,18,0,0,1,349,298.85a10.65,10.65,0,0,1,8.07,3.24c1.92,2.07,2.81,4.77,2.79,9.46l-.09,19.64H356l.08-18.94c0-3.79-.56-6-2-7.59a7.78,7.78,0,0,0-5.9-2.27c-4.3,0-8.42,2.34-11.52,5.6l-.09,23.11h-3.79Z"/><path class="cls-1" d="M360.8,332.22l-5.84,0,.08-20c0-3.51-.49-5.57-1.69-6.89a6.89,6.89,0,0,0-5.14-1.94h0c-3.52,0-7.31,1.82-10.44,5l-.1,23.72-5.84,0,.14-33.64,5.84,0v3.42A18.21,18.21,0,0,1,349,297.82a11.74,11.74,0,0,1,8.83,3.58c2.16,2.33,3.07,5.36,3.05,10.15ZM357,330.16h1.73l.08-18.62c0-4.27-.71-6.81-2.51-8.75a9.64,9.64,0,0,0-7.33-2.92h-.06c-4,0-7.84,1.65-11.4,4.89l-.52.47-1.33-.67,0-4H334l-.12,29.54h1.73l.1-22.49.28-.3c3.59-3.78,8.1-5.93,12.27-5.92a8.74,8.74,0,0,1,6.65,2.61c1.57,1.74,2.24,4.21,2.22,8.28Z"/><path class="cls-1" d="M378.51,303l-5.39,0,0-3.34,5.39,0,0-6.87c0-4,.67-6.93,2.73-8.91a9.82,9.82,0,0,1,6.82-2.35,14.71,14.71,0,0,1,4.11.6l0,3.4a16.13,16.13,0,0,0-4-.53c-4.75,0-5.85,2.93-5.87,7.3l0,7.38,8.79,0v3.33l-8.8,0-.12,28.25-3.79,0Z"/><path class="cls-1" d="M383.2,332.32l-5.84,0,.12-28.25-5.39,0,0-5.39,5.4,0,0-5.84c0-4.73.93-7.62,3.05-9.65,2.42-2.31,5.75-2.61,7.53-2.63a15.36,15.36,0,0,1,4.42.64l.71.23,0,5.53-1.31-.4a15.21,15.21,0,0,0-3.69-.48c-2.55,0-3.4.88-3.86,1.55-.66,1-1,2.47-1,4.72l0,6.36,8.79,0,0,5.39-8.8,0Zm-3.78-2.07h1.74l.12-28.25,8.8,0v-1.28l-8.79,0,0-8.41c0-2.68.44-4.54,1.34-5.86,1.13-1.67,3-2.47,5.57-2.46a18.74,18.74,0,0,1,2.95.28v-1.34a14.16,14.16,0,0,0-3.09-.35,8.9,8.9,0,0,0-6.1,2.06c-1.67,1.61-2.4,4.06-2.42,8.18l0,7.89-5.39,0V302l5.39,0Z"/><path class="cls-1" d="M417.83,299.14a16.51,16.51,0,1,1-16.45,16.43A16.08,16.08,0,0,1,417.83,299.14Zm-.13,29.54c7.19,0,12.61-5.53,12.64-13s-5.34-13.06-12.53-13.09-12.61,5.53-12.64,13S410.51,328.65,417.7,328.68Z"/><path class="cls-1" d="M417.76,333.17h-.08a17.29,17.29,0,0,1-12.44-5.12,17.59,17.59,0,0,1-4.88-12.48,17.07,17.07,0,0,1,17.39-17.45h.08a17.07,17.07,0,0,1,17.32,17.6,17.6,17.6,0,0,1-5,12.44A17.29,17.29,0,0,1,417.76,333.17Zm0-33a15.06,15.06,0,0,0-15.34,15.41,15.56,15.56,0,0,0,4.3,11,15.28,15.28,0,0,0,11,4.5h.07a15.23,15.23,0,0,0,10.94-4.4,15.58,15.58,0,0,0,4.4-11,15.07,15.07,0,0,0-15.28-15.54Zm0,29.53h-.07a13.34,13.34,0,0,1-9.7-4.07,14.31,14.31,0,0,1-3.85-10c0-8,5.88-14,13.61-14h.07c7.75,0,13.58,6.1,13.55,14.11a14.34,14.34,0,0,1-3.93,10A13.35,13.35,0,0,1,417.76,329.7Zm0-26.06c-6.56,0-11.52,5.13-11.55,12a12.21,12.21,0,0,0,3.27,8.61,11.3,11.3,0,0,0,8.23,3.44h0a11.2,11.2,0,0,0,8.27-3.37,12.25,12.25,0,0,0,3.34-8.59c0-6.84-4.91-12-11.5-12.05Z"/><path class="cls-1" d="M449.16,300l3.78,0,0,5.14.13.06a12.93,12.93,0,0,1,10.23-5.48,8.69,8.69,0,0,1,1.86.2v3.66a10.16,10.16,0,0,0-2-.2c-4.3,0-7.65,2.28-10.24,6.12l-.09,22.09-3.79,0Z"/><path class="cls-1" d="M453.83,332.62l-5.84,0,.14-33.65,5.84,0v3.65a13.34,13.34,0,0,1,9.27-3.93h.06a9.22,9.22,0,0,1,2.08.22l.8.19,0,5.76-1.25-.29a8.37,8.37,0,0,0-1.77-.17c-3.68,0-6.66,1.75-9.2,5.41Zm-3.78-2.07h1.74l.09-21.37.17-.26c2.95-4.38,6.69-6.6,11.09-6.57.33,0,.66,0,1,0v-1.61a7.21,7.21,0,0,0-.83,0h0a11.83,11.83,0,0,0-9.36,5.07l-.52.69-1.46-.75,0-4.74h-1.73Z"/><path class="cls-1" d="M523,312.69c0-3.46-.49-5.78-2-7.39a7.64,7.64,0,0,0-5.7-2.21c-4.24,0-8.29,2.34-11.32,5.48a27.6,27.6,0,0,1,.17,3.4l-.08,19.84-3.79,0,.08-19.19c0-3.66-.42-5.78-1.89-7.4a7.72,7.72,0,0,0-5.77-2.2c-4.3,0-8.17,2.4-11.13,5.34l-.1,23.37h-3.79l.14-31.59h3.78l0,4.31.13.06c3.1-2.81,7-5,11.71-5,4.05,0,8,1.77,9.73,5.88,3.94-3.7,8.12-5.81,12.81-5.79a10.78,10.78,0,0,1,8.07,3.18c1.92,2.07,2.74,4.7,2.72,9.33l-.08,19.84-3.79,0Z"/><path class="cls-1" d="M527.73,332.94l-5.84,0,.09-20.22h0c0-3.38-.49-5.38-1.69-6.7a6.69,6.69,0,0,0-4.95-1.87c-3.42,0-7.13,1.74-10.25,4.82.09.93.13,1.95.13,3l-.09,20.86-5.84,0,.09-20.23c0-3.56-.43-5.38-1.63-6.7a6.71,6.71,0,0,0-5-1.87h0c-4.17,0-7.72,2.52-10.06,4.76l-.1,24-5.84,0,.14-33.64,5.84,0v3.29a17.4,17.4,0,0,1,10.73-3.95h.07c4.45,0,8.11,2,10.05,5.25,4-3.48,8.11-5.14,12.49-5.15a11.69,11.69,0,0,1,8.82,3.51c2.15,2.31,3,5.21,3,10ZM524,330.87h1.74l.08-18.82c0-4.23-.69-6.73-2.45-8.62a9.74,9.74,0,0,0-7.33-2.85h-.06c-4.16,0-8.1,1.8-12,5.51l-1.08,1-.57-1.37c-2-4.72-6.81-5.25-8.79-5.26-3.83,0-7.48,1.54-11,4.76l-.52.48-1.32-.68v-3.91h-1.73l-.13,29.54h1.74l.09-22.77.31-.3c2.6-2.57,6.75-5.64,11.8-5.64h.05a8.76,8.76,0,0,1,6.51,2.53c1.84,2,2.19,4.59,2.18,8.1l-.08,18.17h1.74l.08-18.81a27.36,27.36,0,0,0-.17-3.28l-.06-.49.34-.35c3.57-3.69,8-5.79,12.06-5.78a8.58,8.58,0,0,1,6.47,2.54c1.57,1.73,2.24,4.15,2.22,8.09h0Z"/><path class="cls-1" d="M562.87,328.85a16.54,16.54,0,0,1-10.54,3.87,12.37,12.37,0,0,1-7.44-2.21,8.18,8.18,0,0,1-3.25-6.82,8.35,8.35,0,0,1,4-7.3,16.23,16.23,0,0,1,8.68-2.09,31.52,31.52,0,0,1,8.15,1.19l0-3.65c0-3.09-.56-5.08-2.29-6.63a9.64,9.64,0,0,0-6.47-2,16.64,16.64,0,0,0-9.71,3v-3.78a19.3,19.3,0,0,1,10.1-2.79c3.78,0,6.86,1,9,2.8s3.19,4.64,3.18,8.49l-.06,13.68c0,2.7.62,4.69,3.19,4.7a4.27,4.27,0,0,0,2.06-.51l0,3.28a6.71,6.71,0,0,1-2.76.5,5.68,5.68,0,0,1-5.7-3.75Zm-.4-10.34a29.52,29.52,0,0,0-7.83-1.19c-4.5,0-9.13,1.38-9.15,6.06,0,4.11,3.51,5.93,7.36,5.94a14.92,14.92,0,0,0,9.59-3.68Z"/><path class="cls-1" d="M552.39,333.75h-.07a13.52,13.52,0,0,1-8.05-2.42,9.12,9.12,0,0,1-3.65-7.65,9.4,9.4,0,0,1,4.47-8.15,17.32,17.32,0,0,1,9.24-2.25,30.64,30.64,0,0,1,7.13.89v-2.34c0-2.95-.53-4.59-1.94-5.86a8.8,8.8,0,0,0-5.8-1.75,15.67,15.67,0,0,0-9.1,2.85L543,308.24l0-6.37.48-.3a20.36,20.36,0,0,1,10.64-2.93c4,0,7.33,1.07,9.64,3s3.55,5.14,3.53,9.28l-.06,13.67c0,3.38,1.07,3.67,2.17,3.67a3.33,3.33,0,0,0,1.56-.38l1.53-.84,0,5.68-.61.27a7.37,7.37,0,0,1-3.18.6,6.78,6.78,0,0,1-6.11-3.25A17.65,17.65,0,0,1,552.39,333.75Zm1.83-18.42a15.31,15.31,0,0,0-8,1.92,7.33,7.33,0,0,0-3.54,6.44,7.17,7.17,0,0,0,2.84,6,11.53,11.53,0,0,0,6.82,2,15.41,15.41,0,0,0,9.87-3.63l.29-.24h1.23l.24.67a4.69,4.69,0,0,0,4.74,3.08,7.21,7.21,0,0,0,1.74-.21v-1.11a4.9,4.9,0,0,1-1,.09c-2.82,0-4.23-1.94-4.22-5.73l.06-13.67c0-3.5-.93-6.1-2.81-7.71s-4.81-2.54-8.32-2.55h-.08a18.3,18.3,0,0,0-9,2.34v1.34a18,18,0,0,1,8.68-2.2,10.57,10.57,0,0,1,7.15,2.27c1.89,1.69,2.65,3.83,2.63,7.4l0,5-1.29-.36a30.09,30.09,0,0,0-7.88-1.15Zm-1.31,15h-.06c-5.11,0-8.4-2.76-8.38-7,0-4.51,3.69-7.08,10.07-7.08h.1a30.19,30.19,0,0,1,8.12,1.23l.74.22,0,8.36-.35.31A15.91,15.91,0,0,1,552.91,330.35Zm1.64-12c-3,0-8,.67-8,5,0,3.6,3.26,4.89,6.34,4.91a13.75,13.75,0,0,0,8.55-3.14l0-5.87a28.38,28.38,0,0,0-6.81-.94Z"/><path class="cls-1" d="M600.29,331.9a12.33,12.33,0,0,1-5,1,8.78,8.78,0,0,1-6.73-2.73c-1.6-1.87-2.23-4.69-2.21-8.8l.07-17.47-6.29,0,0-3.34,6.29,0,0-8.86,3.79-.62,0,9.5,10.21,0,0,3.34-10.21,0-.07,16.82c0,4.75.67,8.67,5.68,8.69a9.15,9.15,0,0,0,4.5-1.13Z"/><path class="cls-1" d="M595.34,333.93h-.07a9.71,9.71,0,0,1-7.5-3.08c-1.72-2-2.48-4.93-2.46-9.48l.07-16.44-6.29,0,0-5.39,6.29,0,0-8.7,5.85-1,0,9.69,10.21,0,0,5.39-10.21,0-.06,15.79a13.61,13.61,0,0,0,.84,5.66c.7,1.38,1.87,2,3.81,2a8.29,8.29,0,0,0,4-1l1.54-.89,0,6-.58.27A13.4,13.4,0,0,1,595.34,333.93Zm-14.19-31.07,6.29,0-.07,18.49c0,4,.58,6.53,2,8.13a7.74,7.74,0,0,0,5.95,2.37,13,13,0,0,0,4-.67v-1.32a10.4,10.4,0,0,1-3.47.58c-2.69,0-4.59-1.07-5.63-3.14-1-1.89-1.07-4.39-1.07-6.58l.08-17.85,10.21,0v-1.29l-10.21,0,0-9.31-1.74.28,0,9-6.29,0Z"/><path class="cls-1" d="M616.13,292.61a2.92,2.92,0,1,1,3-2.88A2.9,2.9,0,0,1,616.13,292.61Zm-1.9,8.08,3.79,0-.14,31.59-3.78,0Z"/><path class="cls-1" d="M618.9,333.33l-5.83,0,.14-33.64,5.84,0Zm-3.77-2.07h1.73l.13-29.54h-1.74Zm1-37.63h0a3.95,3.95,0,0,1,.08-7.89h0a3.95,3.95,0,0,1-.08,7.89Zm0-2.05a1.9,1.9,0,1,0,.08-3.79h0a1.9,1.9,0,0,0-.07,3.79Z"/><path class="cls-1" d="M649.35,300.13a16.51,16.51,0,1,1-16.44,16.44A16.09,16.09,0,0,1,649.35,300.13Zm-.12,29.54c7.19,0,12.61-5.53,12.64-13s-5.34-13.06-12.53-13.09-12.61,5.53-12.64,13S642,329.64,649.23,329.67Z"/><path class="cls-1" d="M649.29,334.16h-.08a17.08,17.08,0,0,1-17.33-17.6,17.62,17.62,0,0,1,5-12.44,17.29,17.29,0,0,1,12.39-5h.09a17.27,17.27,0,0,1,12.43,5.12,17.55,17.55,0,0,1,4.89,12.48A17.07,17.07,0,0,1,649.29,334.16Zm0-33a15.24,15.24,0,0,0-10.94,4.41,15.6,15.6,0,0,0-4.4,11,15.09,15.09,0,0,0,15.29,15.54h.07a15.07,15.07,0,0,0,15.34-15.41,15.55,15.55,0,0,0-4.31-11,15.26,15.26,0,0,0-11-4.5h-.08Zm0,29.54h-.06c-7.76,0-13.58-6.11-13.55-14.12a14.29,14.29,0,0,1,3.93-10,13.34,13.34,0,0,1,9.68-4h.06a13.32,13.32,0,0,1,9.71,4.08,14.24,14.24,0,0,1,3.84,10C662.86,324.69,657,330.7,649.28,330.7Zm0-2.05h0c6.57,0,11.53-5.14,11.56-12a12.26,12.26,0,0,0-3.27-8.62,11.3,11.3,0,0,0-8.24-3.44h-.05a11.34,11.34,0,0,0-8.21,3.37,12.3,12.3,0,0,0-3.35,8.59c0,6.84,4.92,12,11.51,12.06Z"/><path class="cls-1" d="M680.68,301h3.79l0,4.43.13.07a18,18,0,0,1,12.16-5.15,10.61,10.61,0,0,1,8.07,3.24c1.92,2.07,2.81,4.77,2.79,9.45l-.09,19.65h-3.78l.08-18.95c0-3.78-.56-6-2-7.58a7.78,7.78,0,0,0-5.9-2.27c-4.3,0-8.42,2.34-11.52,5.6l-.09,23.11h-3.79Z"/><path class="cls-1" d="M708.54,333.71l-5.84,0,.08-20c0-3.51-.49-5.57-1.69-6.89a6.89,6.89,0,0,0-5.14-1.94h-.05c-3.52,0-7.31,1.81-10.44,5l-.1,23.73-5.84,0,.14-33.64,5.84,0v3.42a18.37,18.37,0,0,1,11.25-4.08,11.77,11.77,0,0,1,8.83,3.57c2.16,2.33,3.07,5.37,3,10.16Zm-3.78-2.07h1.73l.08-18.62c0-4.28-.71-6.81-2.51-8.75a9.64,9.64,0,0,0-7.33-2.92h-.06c-4,0-7.84,1.64-11.4,4.88l-.52.48-1.33-.67,0-4H681.7l-.12,29.54h1.74l.09-22.49.28-.3c3.57-3.76,8-5.92,12.22-5.92H696a8.71,8.71,0,0,1,6.65,2.61c1.57,1.73,2.24,4.21,2.22,8.28Z"/><path class="cls-1" d="M723,326.65A22.69,22.69,0,0,0,734.88,330c5.33,0,8.74-1.83,8.75-5.62,0-4.75-5.24-5.28-10.18-6.08-5.26-.85-11.23-2.42-11.2-8.84,0-6,5.11-9,12.3-9a24.85,24.85,0,0,1,11.36,2.74l0,4A22,22,0,0,0,734.41,304c-4.94,0-8.35,1.69-8.37,5.29,0,4.43,5.12,4.9,9.86,5.69,5.72.93,11.55,2.49,11.52,9.17,0,6.23-5.11,9.42-12.75,9.38a24.92,24.92,0,0,1-11.74-2.81Z"/><path class="cls-1" d="M734.79,334.53h-.12a25.86,25.86,0,0,1-12.24-2.94l-.53-.3,0-6.52,1.58,1A21.63,21.63,0,0,0,734.88,329c2.85,0,7.71-.57,7.73-4.59,0-3.35-3.19-4.1-8.46-4.93l-.86-.13c-3.93-.64-12.1-2-12.06-9.87a8.87,8.87,0,0,1,3.9-7.58,16.31,16.31,0,0,1,9.32-2.44h.11a25.76,25.76,0,0,1,11.84,2.87l.54.3,0,6.45-1.57-1a21,21,0,0,0-10.93-3.1,11.22,11.22,0,0,0-5.51,1.15,3.41,3.41,0,0,0-1.83,3.12c0,3,3,3.71,7.94,4.51l1.06.17c4.34.7,12.41,2,12.38,10.18C748.42,330.65,743.32,334.53,734.79,334.53ZM724,330.08a24.69,24.69,0,0,0,10.71,2.4h.1c3.57,0,11.6-.84,11.63-8.37,0-5.34-4.06-7.08-10.66-8.14l-1.06-.18c-4.54-.73-9.69-1.55-9.66-6.53a5.46,5.46,0,0,1,2.83-4.88,12.75,12.75,0,0,1,6.57-1.44,23.48,23.48,0,0,1,10.45,2.52v-1.6a24.26,24.26,0,0,0-10.33-2.33,14.29,14.29,0,0,0-8.25,2.06,6.81,6.81,0,0,0-3,5.91c0,5.1,4.11,6.82,10.33,7.83l.85.14c4.79.75,10.22,1.6,10.2,7,0,4.22-3.55,6.63-9.69,6.63h-.1a24.15,24.15,0,0,1-10.9-2.63Z"/><path class="cls-1" d="M760.25,326.81a22.74,22.74,0,0,0,11.93,3.39c5.33,0,8.74-1.83,8.76-5.62,0-4.75-5.24-5.28-10.19-6.08-5.26-.85-11.22-2.42-11.19-8.84,0-6,5.11-9,12.3-9a24.65,24.65,0,0,1,11.35,2.75v4a21.92,21.92,0,0,0-11.48-3.26c-5,0-8.36,1.69-8.37,5.29,0,4.43,5.11,4.9,9.86,5.69,5.71.93,11.55,2.49,11.52,9.17,0,6.23-5.11,9.42-12.76,9.38a24.88,24.88,0,0,1-11.73-2.81Z"/><path class="cls-1" d="M772.09,334.69H772a25.92,25.92,0,0,1-12.24-2.94l-.52-.3,0-6.52,1.57,1a21.64,21.64,0,0,0,11.38,3.22c2.84,0,7.71-.57,7.72-4.59,0-3.36-3.19-4.1-8.46-4.93l-.86-.13c-3.93-.64-12.09-2-12.06-9.86,0-6.19,5.09-10,13.23-10h.1a25.61,25.61,0,0,1,11.84,2.88l.54.29,0,6.46-1.57-1a21,21,0,0,0-10.93-3.1,10.91,10.91,0,0,0-5.5,1.15,3.44,3.44,0,0,0-1.84,3.12c0,3,3,3.71,7.94,4.51l1.07.17c4.33.7,12.41,2,12.37,10.18C785.73,330.8,780.62,334.69,772.09,334.69Zm-10.83-4.45a24.73,24.73,0,0,0,10.72,2.4h.1c3.56,0,11.59-.84,11.62-8.37,0-5.34-4.06-7.08-10.65-8.15L772,316c-4.54-.73-9.69-1.55-9.67-6.54a5.45,5.45,0,0,1,2.84-4.87,12.54,12.54,0,0,1,6.46-1.44h.1a23.52,23.52,0,0,1,10.46,2.52V304a24.4,24.4,0,0,0-10.32-2.34h-.11c-7,0-11.15,3-11.17,8s4.12,6.82,10.34,7.83l.84.14c4.8.75,10.23,1.6,10.21,7,0,4.22-3.55,6.63-9.69,6.63h-.1a24.07,24.07,0,0,1-10.91-2.64Z"/><path class="cls-1" d="M822.51,301.58l4,0-22,45.62-4.05,0L809,329.71,795.8,301.47l4.18,0,6.23,13.38c1.72,3.67,3.31,7.14,4.84,10.55h.13c1.55-3.33,3.24-6.92,4.92-10.45Z"/><path class="cls-1" d="M805.11,348.25l-6.33,0,9.12-18.52-13.71-29.26,6.44,0,6.51,14c1.39,3,2.7,5.81,4,8.67,1.3-2.78,2.67-5.7,4-8.57l6.7-14,6.26,0Zm-3-2.06h1.76l21-43.57h-1.71L817,315.42c-1.68,3.52-3.36,7.1-4.91,10.43l-.28.6h-1.45l-.27-.6c-1.56-3.49-3.14-6.93-4.83-10.54l-6-12.79h-1.9l12.76,27.22Z"/><path class="cls-1" d="M837.62,327.14a22.65,22.65,0,0,0,11.93,3.39c5.33,0,8.74-1.83,8.76-5.61,0-4.76-5.24-5.29-10.19-6.08-5.26-.86-11.22-2.43-11.19-8.85,0-6,5.11-9,12.3-9a24.65,24.65,0,0,1,11.35,2.75l0,4a21.89,21.89,0,0,0-11.47-3.26c-5,0-8.36,1.7-8.37,5.29,0,4.43,5.11,4.9,9.86,5.69,5.71.93,11.55,2.49,11.52,9.17,0,6.23-5.12,9.42-12.76,9.38a24.83,24.83,0,0,1-11.74-2.81Z"/><path class="cls-1" d="M849.46,335h-.12a25.86,25.86,0,0,1-12.24-2.94l-.52-.3,0-6.52,1.57,1a21.64,21.64,0,0,0,11.38,3.22c2.83,0,7.7-.56,7.72-4.59,0-3.35-3.19-4.1-8.46-4.93l-.86-.13c-3.93-.64-12.09-2-12.06-9.86a8.86,8.86,0,0,1,3.91-7.59c2.31-1.61,5.53-2.44,9.42-2.44a25.61,25.61,0,0,1,11.84,2.88l.54.29,0,6.46-1.57-1a21,21,0,0,0-10.93-3.1,10.83,10.83,0,0,0-5.5,1.15,3.44,3.44,0,0,0-1.84,3.13c0,3,3,3.7,7.94,4.5l1.07.17c4.33.7,12.41,2,12.37,10.18C863.09,331.14,858,335,849.46,335Zm-10.83-4.45a24.7,24.7,0,0,0,10.72,2.4c3.48,0,11.69-.77,11.72-8.36,0-5.35-4.06-7.09-10.66-8.15l-1-.18c-4.54-.73-9.69-1.55-9.67-6.53a5.47,5.47,0,0,1,2.84-4.88,12.87,12.87,0,0,1,6.56-1.44A23.52,23.52,0,0,1,859.55,306v-1.6A24.26,24.26,0,0,0,849.22,302a14.31,14.31,0,0,0-8.25,2.06,6.86,6.86,0,0,0-3,5.91c0,5.1,4.12,6.82,10.34,7.83l.84.14c4.8.75,10.23,1.6,10.2,7,0,4.22-3.54,6.63-9.68,6.63h-.1a24.19,24.19,0,0,1-10.91-2.63Z"/><path class="cls-1" d="M892.94,333.15a12.16,12.16,0,0,1-5,1,8.74,8.74,0,0,1-6.73-2.73c-1.6-1.87-2.23-4.69-2.21-8.8l.08-17.47-6.3,0,0-3.34,6.29,0,0-8.86,3.79-.62,0,9.5,10.21,0,0,3.34-10.2,0L882.78,322c0,4.75.67,8.67,5.68,8.69a9.12,9.12,0,0,0,4.5-1.13Z"/><path class="cls-1" d="M888,335.19h-.05a9.77,9.77,0,0,1-7.5-3.08c-1.73-2-2.48-4.94-2.46-9.49l.07-16.44-6.3,0,0-5.39,6.29,0,0-8.7,5.84-1,0,9.69,10.21,0,0,5.39-10.2,0-.07,15.8a13.57,13.57,0,0,0,.84,5.65c.7,1.38,1.87,2,3.81,2h0a8.24,8.24,0,0,0,4-1l1.54-.89,0,6-.59.27A13.41,13.41,0,0,1,888,335.19ZM873.8,304.12l6.3,0L880,322.63c0,4,.59,6.53,2,8.14a7.74,7.74,0,0,0,6,2.36h0a12,12,0,0,0,3.93-.66v-1.32a10.64,10.64,0,0,1-3.43.57h0c-2.7,0-4.59-1.07-5.64-3.14a15,15,0,0,1-1.06-6.58l.07-17.85,10.21,0V302.9l-10.21,0,0-9.31-1.74.28,0,9-6.29,0Z"/><path class="cls-1" d="M907.52,318.77c.61,7.45,5.92,12.1,13.36,12.13a17.52,17.52,0,0,0,10.61-3.62v4.11a21.33,21.33,0,0,1-10.87,2.91c-9.69,0-16.86-6.75-16.81-16.57s7.13-16.48,15.67-16.44c7.64,0,14,5.52,13.93,14.89,0,1-.07,1.93-.14,2.7Zm22.16-3c-.16-8.48-6.12-11-10.35-11-5.27,0-10.61,3.62-11.67,10.93Z"/><path class="cls-1" d="M920.69,335.33h-.08c-10.38-.05-17.88-7.45-17.84-17.61,0-10,7.19-17.45,16.63-17.45h.07c8.85,0,15,6.58,15,15.92,0,.8,0,1.71-.14,2.78l-.09.94-25.53-.11c1,6.22,5.55,10,12.22,10.07H921a16.46,16.46,0,0,0,9.93-3.42l1.64-1.19,0,6.71-.49.3A22.48,22.48,0,0,1,920.69,335.33Zm-1.29-33c-8.28,0-14.54,6.61-14.58,15.41,0,9.11,6.46,15.5,15.8,15.54h.07a20.57,20.57,0,0,0,9.76-2.46V329.2a18.08,18.08,0,0,1-9.58,2.72c-8.09,0-13.74-5.16-14.39-13.07l-.09-1.11,25.91.11c0-.62.07-1.17.07-1.67,0-8.13-5.28-13.83-12.91-13.86Zm11.33,14.43-24.26-.11.17-1.16c1.18-8.17,7.19-11.81,12.64-11.81h.05c5.15,0,11.21,3.18,11.38,12Zm-21.84-2.15,19.71.09c-.69-8.49-7.81-9-9.28-9h0C915,305.72,910.26,308.47,908.89,314.6Z"/><path class="cls-1" d="M993.83,314.71c0-3.47-.49-5.78-2-7.39a7.62,7.62,0,0,0-5.7-2.21c-4.24,0-8.3,2.34-11.33,5.47A25.93,25.93,0,0,1,975,314l-.08,19.84-3.79,0,.08-19.2c0-3.66-.43-5.78-1.89-7.39a7.72,7.72,0,0,0-5.77-2.21c-4.31,0-8.17,2.41-11.14,5.35l-.1,23.37-3.78,0,.13-31.59,3.79,0,0,4.3.13.07c3.09-2.82,7-5.05,11.71-5,4,0,8,1.77,9.73,5.89,3.93-3.71,8.12-5.81,12.8-5.79a10.79,10.79,0,0,1,8.08,3.18c1.92,2.06,2.74,4.7,2.72,9.32l-.08,19.84h-3.79Z"/><path class="cls-1" d="M998.56,335l-5.84,0,.09-20.23h0c0-3.38-.5-5.38-1.7-6.69a6.64,6.64,0,0,0-5-1.88c-3.44,0-7.12,1.74-10.24,4.83.09.93.13,2,.13,3L976,334.86l-5.84,0,.08-20.22c0-3.57-.42-5.38-1.62-6.7a6.68,6.68,0,0,0-5-1.87h0c-4.17,0-7.73,2.51-10.06,4.75l-.1,24-5.84,0,.14-33.64,5.84,0v3.29a17.34,17.34,0,0,1,10.73-4h.07c4.45,0,8.1,2,10,5.24,4-3.46,8.08-5.15,12.43-5.15h.07a11.75,11.75,0,0,1,8.82,3.51c2.15,2.31,3,5.22,3,10Zm-3.78-2.06h1.74l.08-18.81c0-4.24-.7-6.73-2.45-8.62a9.75,9.75,0,0,0-7.33-2.86h-.06c-4.17,0-8.1,1.81-12,5.51l-1.08,1-.57-1.37c-2-4.71-6.81-5.24-8.8-5.25h-.06c-3.85,0-7.43,1.55-11,4.75l-.52.48-1.33-.67,0-3.91H949.7l-.12,29.54h1.73l.1-22.77.3-.3c2.6-2.58,6.76-5.64,11.81-5.64h.05a8.75,8.75,0,0,1,6.51,2.52c1.83,2,2.19,4.59,2.18,8.11l-.08,18.17h1.73L974,314a25.63,25.63,0,0,0-.17-3.28l-.05-.48.34-.35c3.57-3.7,8-5.76,12.06-5.79a8.57,8.57,0,0,1,6.46,2.55c1.58,1.72,2.24,4.14,2.23,8.08h0Z"/><path class="cls-1" d="M288.12,360.74c13.36.06,23.39,10.63,23.33,24.05s-10.18,23.91-23.53,23.85-23.4-10.63-23.34-24.05S274.77,360.69,288.12,360.74ZM287.93,405c11.3,0,19.56-8.9,19.61-20.2s-8.14-20.33-19.43-20.38-19.56,8.91-19.61,20.21S276.63,404.93,287.93,405Zm-8.31-53.39a2.64,2.64,0,1,1,2.62,2.64A2.6,2.6,0,0,1,279.62,351.59Zm11.81.05a2.64,2.64,0,1,1,2.63,2.64A2.6,2.6,0,0,1,291.43,351.64Z"/><path class="cls-1" d="M288,409.67h-.11a24.11,24.11,0,0,1-17.43-7.33,25.94,25.94,0,0,1,.15-35.44A24.1,24.1,0,0,1,288,359.72h.12c13.71.06,24.41,11.07,24.35,25.08S301.68,409.67,288,409.67Zm0-47.9a22.07,22.07,0,0,0-15.91,6.56,23.89,23.89,0,0,0-.14,32.59,22.1,22.1,0,0,0,16,6.7H288c12.72,0,22.34-9.8,22.4-22.83s-9.54-23-22.31-23ZM288,406h-.09a20.12,20.12,0,0,1-14.72-6.29,21.83,21.83,0,0,1-5.74-15.11c.06-12.12,8.88-21.23,20.54-21.23h.1c11.71.05,20.5,9.25,20.45,21.4S299.69,406,288,406Zm0-40.58c-10.5,0-18.44,8.23-18.48,19.18a19.65,19.65,0,0,0,5.18,13.7A18.06,18.06,0,0,0,287.94,404H288c10.5,0,18.44-8.24,18.49-19.19s-7.87-19.3-18.41-19.34Zm6.06-10.12h0a3.62,3.62,0,0,1-3.64-3.67h0a3.6,3.6,0,0,1,1.07-2.59,3.52,3.52,0,0,1,2.6-1.06,3.66,3.66,0,1,1,0,7.32Zm-1.61-3.67a1.58,1.58,0,0,0,1.6,1.62h0a1.61,1.61,0,0,0,0-3.22h0a1.59,1.59,0,0,0-1.61,1.6Zm-10.21,3.62h0a3.64,3.64,0,0,1-2.59-1.07,3.68,3.68,0,0,1,2.6-6.25h0a3.66,3.66,0,0,1,0,7.32Zm-1.6-3.67a1.61,1.61,0,1,0,3.21,0,1.59,1.59,0,0,0-1.6-1.62h0a1.57,1.57,0,0,0-1.6,1.6Z"/><path class="cls-1" d="M324.35,402a22.63,22.63,0,0,0,11.93,3.39c5.33,0,8.74-1.82,8.76-5.61,0-4.75-5.25-5.29-10.19-6.08-5.26-.86-11.22-2.42-11.2-8.84,0-6,5.11-9,12.31-9a24.71,24.71,0,0,1,11.35,2.74l0,4a22.08,22.08,0,0,0-11.48-3.26c-4.94,0-8.35,1.7-8.37,5.3,0,4.43,5.12,4.9,9.87,5.69,5.71.92,11.54,2.49,11.52,9.16,0,6.23-5.12,9.42-12.76,9.39A25.07,25.07,0,0,1,324.33,406Z"/><path class="cls-1" d="M336.19,409.87h-.12a25.86,25.86,0,0,1-12.24-2.94l-.53-.3,0-6.52,1.58,1a21.64,21.64,0,0,0,11.37,3.23,11.29,11.29,0,0,0,5.83-1.23,3.72,3.72,0,0,0,1.9-3.37c0-3.35-3.19-4.1-8.46-4.92l-.86-.14c-3.93-.64-12.1-2-12.06-9.86a8.89,8.89,0,0,1,3.9-7.59,16.34,16.34,0,0,1,9.43-2.43,25.64,25.64,0,0,1,11.84,2.87l.54.29,0,6.46-1.57-1a20.88,20.88,0,0,0-10.93-3.09,11,11,0,0,0-5.51,1.14,3.43,3.43,0,0,0-1.83,3.13c0,3,3,3.71,7.94,4.5l1.06.18c4.34.7,12.42,2,12.38,10.18C349.82,406,344.72,409.87,336.19,409.87Zm-10.83-4.44a24.54,24.54,0,0,0,10.71,2.39c3.5,0,11.7-.77,11.73-8.36,0-5.35-4.06-7.08-10.66-8.15l-1.05-.17c-4.55-.73-9.69-1.56-9.67-6.54a5.49,5.49,0,0,1,2.83-4.88,12.71,12.71,0,0,1,6.57-1.43,23.47,23.47,0,0,1,10.45,2.51v-1.59A24.26,24.26,0,0,0,336,376.87c-3.46,0-6.28.7-8.25,2.07a6.84,6.84,0,0,0-3,5.91c0,5.1,4.12,6.81,10.34,7.83l.84.13c4.8.75,10.22,1.6,10.2,7a5.76,5.76,0,0,1-2.87,5.11,13.42,13.42,0,0,1-6.92,1.53,24.29,24.29,0,0,1-10.9-2.64Z"/><path class="cls-1" d="M379.67,408a12.37,12.37,0,0,1-5,1,8.77,8.77,0,0,1-6.73-2.72c-1.6-1.87-2.23-4.7-2.21-8.81l.07-17.46-6.29,0,0-3.34,6.29,0,0-8.86,3.79-.63,0,9.51,10.2,0v3.34L369.58,380l-.07,16.83c0,4.75.67,8.67,5.68,8.69a9.16,9.16,0,0,0,4.5-1.14Z"/><path class="cls-1" d="M374.71,410h-.06a9.75,9.75,0,0,1-7.5-3.08c-1.72-2-2.48-4.94-2.46-9.48l.07-16.44-6.29,0,0-5.39,6.3,0,0-8.7,5.85-1,0,9.69,10.21.05,0,5.39-10.21-.05-.06,15.8a13.57,13.57,0,0,0,.84,5.65c.7,1.38,1.87,2,3.81,2h0a8.13,8.13,0,0,0,3.95-1l1.54-.88,0,6-.58.28A13.41,13.41,0,0,1,374.71,410ZM360.53,379l6.29,0-.08,18.49c0,4,.59,6.52,2,8.13a7.78,7.78,0,0,0,6,2.37,11.93,11.93,0,0,0,4-.67V406a10.53,10.53,0,0,1-3.42.57h-.05c-2.69,0-4.59-1.06-5.63-3.13-1-1.89-1.07-4.39-1.07-6.59l.08-17.85,10.21.05v-1.29l-10.2,0,0-9.32-1.74.29,0,9-6.29,0Z"/><path class="cls-1" d="M394.24,393.62c.62,7.45,5.92,12.1,13.37,12.13a17.6,17.6,0,0,0,10.61-3.61v4.11a21.42,21.42,0,0,1-10.87,2.9c-9.69,0-16.86-6.75-16.81-16.57s7.13-16.47,15.67-16.43c7.64,0,14,5.51,13.93,14.89,0,1-.07,1.92-.14,2.69Zm22.17-3.05c-.16-8.47-6.12-11-10.35-11-5.27,0-10.61,3.61-11.67,10.93Z"/><path class="cls-1" d="M407.42,410.18h-.08c-10.38-.05-17.88-7.45-17.84-17.61,0-10,7.19-17.45,16.63-17.45h.07c8.85,0,15,6.59,15,15.92,0,.82-.05,1.73-.15,2.78l-.08.94-25.53-.11c1,6.22,5.55,10.05,12.22,10.08h.07a16.46,16.46,0,0,0,9.93-3.42l1.64-1.19,0,6.7-.49.3A22.41,22.41,0,0,1,407.42,410.18Zm-1.29-33c-8.28,0-14.54,6.61-14.58,15.41,0,9.12,6.46,15.51,15.8,15.55a20.34,20.34,0,0,0,9.83-2.47v-1.6a17.88,17.88,0,0,1-9.58,2.72c-8.09,0-13.74-5.17-14.39-13.07l-.09-1.12,25.91.11c0-.61.06-1.16.07-1.67,0-8.13-5.28-13.83-12.92-13.86Zm11.33,14.43-24.26-.1.17-1.17c1.19-8.19,7.2-11.81,12.69-11.81,5.15,0,11.21,3.19,11.38,12Zm-21.84-2.14,19.71.08c-.7-8.48-7.81-9-9.28-9C401.73,380.53,397,383.31,395.62,389.46Z"/><path class="cls-1" d="M435.41,377h3.79l0,5.14.13.06a12.93,12.93,0,0,1,10.24-5.47,8.22,8.22,0,0,1,1.86.2l0,3.66a9.38,9.38,0,0,0-2-.2c-4.3,0-7.65,2.27-10.23,6.12l-.1,22.08h-3.79Z"/><path class="cls-1" d="M440.08,409.61l-5.84,0,.15-33.64,5.84,0,0,3.65a13.4,13.4,0,0,1,9.28-3.93h.05a9.21,9.21,0,0,1,2.08.23l.81.18,0,5.76-1.24-.28a8.39,8.39,0,0,0-1.77-.18h-.05c-3.63,0-6.63,1.77-9.16,5.41Zm-3.78-2.06H438l.09-21.37.18-.26c2.93-4.36,6.64-6.57,11-6.57h.06c.33,0,.65,0,1,0v-1.61c-.27,0-.54,0-.84,0h0a11.89,11.89,0,0,0-9.37,5.07l-.51.69-1.46-.74,0-4.75h-1.74Z"/><path class="cls-1" d="M464.11,377.1l3.79,0,0,5.13.12.07a12.91,12.91,0,0,1,10.24-5.48,8.22,8.22,0,0,1,1.86.2l0,3.66a9.31,9.31,0,0,0-2-.2c-4.3,0-7.65,2.28-10.23,6.12l-.1,22.09-3.78,0Z"/><path class="cls-1" d="M468.78,409.74l-5.83,0,.14-33.64,5.84,0,0,3.65a13.4,13.4,0,0,1,9.28-3.93h.05a9.91,9.91,0,0,1,2.09.23l.8.18,0,5.76-1.24-.28a9.11,9.11,0,0,0-1.77-.18c-3.62,0-6.67,1.76-9.21,5.42ZM465,407.67h1.73l.09-21.38.18-.25c2.93-4.37,6.64-6.58,11-6.58h.06c.33,0,.65,0,1,0v-1.6a7.39,7.39,0,0,0-.84,0h0a11.88,11.88,0,0,0-9.37,5.06l-.51.69-1.46-.73,0-4.75h-1.74Z"/><path class="cls-1" d="M493.38,394.05c.61,7.45,5.92,12.09,13.37,12.13a17.61,17.61,0,0,0,10.61-3.62l0,4.11a21.42,21.42,0,0,1-10.86,2.91c-9.7,0-16.86-6.75-16.82-16.58s7.13-16.47,15.67-16.43c7.64,0,14,5.52,13.94,14.89,0,1-.07,1.93-.14,2.7ZM515.55,391c-.16-8.48-6.12-11-10.36-11-5.26,0-10.61,3.62-11.67,10.93Z"/><path class="cls-1" d="M506.56,410.6h-.09a18.23,18.23,0,0,1-12.77-4.91A17.28,17.28,0,0,1,488.64,393a17.88,17.88,0,0,1,4.94-12.61,16.29,16.29,0,0,1,11.76-4.85,14.85,14.85,0,0,1,10.57,4.25,16,16,0,0,1,4.38,11.68c0,.81,0,1.72-.14,2.78l-.08.94-25.54-.11c1,6.21,5.56,10,12.22,10.07h.07a16.46,16.46,0,0,0,9.93-3.42l1.64-1.19,0,6.71-.48.29A22.44,22.44,0,0,1,506.56,410.6Zm-1.3-33A14.22,14.22,0,0,0,495,381.83,15.87,15.87,0,0,0,490.69,393a15.12,15.12,0,0,0,4.44,11.21,16.2,16.2,0,0,0,11.35,4.33h.08a20.49,20.49,0,0,0,9.76-2.47v-1.6a17.78,17.78,0,0,1-9.58,2.72c-8.09,0-13.73-5.16-14.38-13.07l-.09-1.11,25.91.11c0-.61.06-1.16.06-1.67a14,14,0,0,0-3.79-10.22,12.74,12.74,0,0,0-9.12-3.64ZM516.59,392l-24.25-.11.17-1.17c1.18-8.16,7.19-11.8,12.63-11.8h.06c5.14,0,11.21,3.18,11.37,12Zm-21.84-2.15,19.72.09c-.7-8.49-7.81-9-9.28-9h-.05C500.85,381,496.12,383.75,494.75,389.88Z"/><path class="cls-1" d="M536.44,369.32a2.92,2.92,0,1,1,3-2.88A2.91,2.91,0,0,1,536.44,369.32Zm-1.9,8.08,3.79,0L538.2,409l-3.79,0Z"/><path class="cls-1" d="M539.22,410l-5.84,0,.14-33.64,5.84,0ZM535.44,408h1.74l.12-29.54h-1.73Zm1-37.63h0a3.9,3.9,0,0,1-2.78-1.16,4,4,0,0,1-1.12-2.83,3.83,3.83,0,0,1,1.17-2.77,4.15,4.15,0,0,1,2.82-1.13,3.95,3.95,0,0,1-.07,7.89Zm0-2h0a1.9,1.9,0,0,0,.08-3.79,1.86,1.86,0,0,0-1.94,1.86,2,2,0,0,0,.54,1.38,1.8,1.8,0,0,0,1.32.55Z"/><path class="cls-1" d="M579.3,407.51a19.13,19.13,0,0,1-9.45,2.34c-9.83,0-16.67-7.07-16.63-16.45,0-9.56,7.27-16.59,17.09-16.55a18.89,18.89,0,0,1,8.6,2.09l0,4a16.44,16.44,0,0,0-8.72-2.6c-7.84,0-13.13,5.65-13.16,13.1s5.4,12.93,13,13a14.82,14.82,0,0,0,9.25-3Z"/><path class="cls-1" d="M569.94,410.87h-.1c-10.26,0-17.69-7.39-17.64-17.47s7.66-17.61,18.11-17.58a20,20,0,0,1,9.07,2.21l.55.29,0,6.45-1.56-1a15.45,15.45,0,0,0-8.19-2.45h-.06a11.85,11.85,0,0,0-8.7,3.44,12.26,12.26,0,0,0-3.36,8.64c0,7,4.91,11.91,12,11.94h.07a14,14,0,0,0,8.56-2.77l1.66-1.29,0,6.81-.51.29A19.88,19.88,0,0,1,569.94,410.87Zm.28-33c-9.22,0-15.93,6.52-16,15.54s6.52,15.37,15.6,15.41h.09a18.48,18.48,0,0,0,8.33-1.91v-1.59a16.42,16.42,0,0,1-8.16,2.09h-.07c-8.18,0-14.1-5.92-14.06-14a14.3,14.3,0,0,1,3.94-10.08,14.09,14.09,0,0,1,10.17-4h.07a17,17,0,0,1,7.7,1.88v-1.6a18.06,18.06,0,0,0-7.57-1.7Z"/><path class="cls-1" d="M594.91,360.19l3.79,0-.1,21.9.13.06A17.74,17.74,0,0,1,610.89,377a10.65,10.65,0,0,1,8.07,3.25c1.92,2.06,2.81,4.76,2.79,9.45l-.09,19.64h-3.78l.08-18.94c0-4-.55-6-2-7.59a7.34,7.34,0,0,0-5.71-2.27c-4.43,0-8.49,2.34-11.65,5.6l-.09,23.11H594.7Z"/><path class="cls-1" d="M622.69,410.39l-5.84,0,.08-20c0-3.66-.45-5.52-1.74-6.87a6.31,6.31,0,0,0-5-1.95h-.05c-3.59,0-7.33,1.77-10.57,5l-.1,23.72-5.84,0,.22-51.11,5.84,0-.09,20.86A18.11,18.11,0,0,1,610.82,376h.07a11.73,11.73,0,0,1,8.83,3.57c2.16,2.33,3.07,5.36,3,10.15Zm-3.78-2.06h1.73l.08-18.62c0-4.27-.71-6.81-2.51-8.75a9.6,9.6,0,0,0-7.33-2.91h-.06a16.94,16.94,0,0,0-11.39,4.87l-.53.49-1.33-.68.1-21.5h-1.74l-.2,47h1.73l.1-22.5.29-.29c3.69-3.82,8.07-5.92,12.33-5.92h.05a8.4,8.4,0,0,1,6.47,2.61c1.66,1.75,2.3,4.08,2.28,8.28Z"/><path class="cls-1" d="M156.26,83.72a117.85,117.85,0,0,0-43.26-6C79.6,79.48,56,95.2,46.38,102.51c-6.72,9.43-13.5,19.46-20.24,30.09C16.34,148,7.7,163,.08,177.36A188.61,188.61,0,0,1,32,166.5c18.6-4.7,42.52-8,63.79-2.17,6.37-8.48,27.93-37.23,34.31-45.71C133.93,113.46,152.39,88.88,156.26,83.72ZM97.07,142.57c-4.56-1-15.09-3-26-1.6a99.19,99.19,0,0,0-14.53,3.31c-2.4.75-4.39,1.48-5.85,2.05L84.32,93.17a10.65,10.65,0,0,1,4.42-1.1,10.48,10.48,0,0,1,4,.69l-26.2,41.72s11.19-4.62,33.06.75Z"/><path class="cls-1" d="M179.12,144.32A120.36,120.36,0,0,0,123,159.52a247.65,247.65,0,0,0-46.2,79.19,185.87,185.87,0,0,1,32.15-8.46c13.81-2.33,27.84-4.56,44.8-.39A84.54,84.54,0,0,1,166.08,234q15.71-20.65,31.62-43,13.89-19.56,26.56-38.58A119.33,119.33,0,0,0,179.12,144.32ZM131.83,212.2a13.76,13.76,0,0,0-4.47,0,26.76,26.76,0,0,0-2.87.73c-.84.26-1.52.5-2,.69l32.37-51.08a10.37,10.37,0,0,1,8.41-.42Z"/><path class="cls-1" d="M247.43,213.25A119.66,119.66,0,0,0,193,226.49a199.89,199.89,0,0,0-41.19,78.28,161.71,161.71,0,0,1,33.78-7.52c9.8-1.1,20.08-2.15,33,.78a81,81,0,0,1,10.06,3,232.46,232.46,0,0,0,17.07-20.72c6.59-9,10.59-15.88,14.59-22.48,5.6-9.25,13.83-22.35,24.83-38.31A118.13,118.13,0,0,0,247.43,213.25ZM232.16,226c.71-.42,2.49-1.48,3.93-.71a2.47,2.47,0,0,1,1.17,1.38c.41,1.31-.59,2.58-1,3.07-1.62,2.05-4.92,3.29-6.47,2.05a2.2,2.2,0,0,1-.74-1.2C228.63,228.69,230.81,226.78,232.16,226ZM213,228.69a2.39,2.39,0,0,1,2,.37,1.94,1.94,0,0,1,.57,1.19,2.86,2.86,0,0,1-.73,2.08c-1.21,1.57-3.81,2.59-5,1.6a2,2,0,0,1-.64-1.32C209,230.77,211.12,229,213,228.69ZM216.92,282c-2.28,1.17-18.71,9.59-28.81,2.11a15.11,15.11,0,0,1-5.27-7.14c-4.72-14.23,14.54-37.73,34.73-41.19,3.4-.59,12.93-2.23,19,3.39a14.89,14.89,0,0,1,3.65,5.43C244.38,255.73,232.57,274,216.92,282Z"/><path class="cls-1" d="M230.47,245.12c-4.53-4.13-11.62-2.92-14.15-2.49-15,2.56-29.34,19.86-25.84,30.31a11.13,11.13,0,0,0,3.91,5.25c7.51,5.5,19.72-.7,21.42-1.57,11.64-5.91,20.43-19.35,17.37-27.51A11,11,0,0,0,230.47,245.12Z"/><path class="cls-2" d="M174.35,6.84a600.93,600.93,0,0,0-95.61,22.3L69.4,43.72c74.32-18.22,152.73-27.1,152.73-27.1A843,843,0,0,0,127.6,118.21c-43.52,55.28-72.19,122.25-93.9,167l19.22,3.31c16.71-36.48,41.5-88.34,72-131.69A770,770,0,0,1,271.39.38,600.68,600.68,0,0,0,174.35,6.84Z"/><path class="cls-2" d="M265.66,56.49a523.4,523.4,0,0,0-68.37,12.08c-3,2.64-6.13,5.64-9.31,9a136.93,136.93,0,0,0-10.13,12.13A533.71,533.71,0,0,1,300.42,69.48c-12,11.51-30.49,30-51.57,54.12-33.53,38.39-81.34,94-116.17,176.21a538.39,538.39,0,0,0-24.77,72.47l16.83,2.93A699.31,699.31,0,0,1,342,53.76,523.92,523.92,0,0,0,265.66,56.49Z"/><path class="cls-2" d="M332.35,116.59a506.63,506.63,0,0,0-67,11.74c-3,3-6.16,6.4-9.33,10.17-3,3.57-5.69,7.05-8.07,10.36a480.83,480.83,0,0,1,59.16-13,534.87,534.87,0,0,1,60-6.24c-12,11.52-30.5,30-51.58,54.12-33.53,38.39-81.34,94-116.17,176.21a539.37,539.37,0,0,0-24.77,72.47l16.83,2.93A699.45,699.45,0,0,1,408.65,113.86,525.34,525.34,0,0,0,332.35,116.59Z"/></svg>