<?xml version="1.0" encoding="utf-8"?>
<svg viewBox="0 0 685 261" style="enable-background:new 0 0 861.5 438.1;" xmlns="http://www.w3.org/2000/svg">
  <defs>
    <style type="text/css">
	.st0{fill:#2C55A2;}
</style>
  </defs>
  <g transform="matrix(1, 0, 0, 1, -86.5, -84.300003)">
    <path d="M295.5,106.8c-0.3-0.6,0.1-1.3,0.8-1.3h6.5c0.4,0,0.7,0.3,0.8,0.5l8.1,18h0.3l8.1-18c0.1-0.2,0.4-0.5,0.8-0.5h6.5   c0.7,0,1.1,0.6,0.8,1.3L313,139.9c-0.1,0.3-0.4,0.5-0.8,0.5h-0.5c-0.4,0-0.7-0.2-0.8-0.5L295.5,106.8z"/>
    <path d="M332.5,106.4c0-0.5,0.4-0.9,0.9-0.9h20.4c0.5,0,0.9,0.4,0.9,0.9v5.4c0,0.5-0.4,0.9-0.9,0.9h-13.6v6.1h11.2   c0.5,0,0.9,0.4,0.9,0.9v5.4c0,0.5-0.4,0.9-0.9,0.9h-11.2v6.6h13.6c0.5,0,0.9,0.4,0.9,0.9v5.4c0,0.5-0.4,0.9-0.9,0.9h-20.4   c-0.5,0-0.9-0.4-0.9-0.9V106.4z"/>
    <path d="M361.3,106.4c0-0.5,0.4-0.9,0.9-0.9h14.7c5.9,0,10.7,4.8,10.7,10.6c0,4.5-3,8.2-7.3,9.9l6.7,12.5c0.3,0.6,0,1.4-0.8,1.4   h-6.5c-0.4,0-0.7-0.2-0.8-0.4l-6.5-13H369V139c0,0.5-0.4,0.9-0.9,0.9h-5.9c-0.5,0-0.9-0.4-0.9-0.9V106.4z M376.3,120.2   c2,0,3.7-1.9,3.7-3.9c0-2.1-1.7-3.7-3.7-3.7H369v7.7H376.3z"/>
    <path d="M394.2,106.4c0-0.5,0.4-0.9,0.9-0.9h5.9c0.5,0,0.9,0.4,0.9,0.9v26.3h11.7c0.5,0,0.9,0.4,0.9,0.9v5.4c0,0.5-0.4,0.9-0.9,0.9   h-18.5c-0.5,0-0.9-0.4-0.9-0.9V106.4z"/>
    <path d="M418.5,138.6l15.4-33.1c0.1-0.3,0.5-0.5,0.8-0.5h0.5c0.3,0,0.7,0.2,0.8,0.5l15.4,33.1c0.3,0.6-0.1,1.3-0.8,1.3h-5.5   c-0.9,0-1.3-0.3-1.7-1.2l-1.8-3.9h-13.4l-1.8,3.9c-0.2,0.6-0.8,1.2-1.8,1.2h-5.4C418.6,139.9,418.2,139.3,418.5,138.6z    M438.8,128.1L435,120h0l-3.7,8.1H438.8z"/>
    <path d="M469.4,105.1c4.1,0,8.7,1.7,12,4.6c0.4,0.3,0.5,0.9,0.1,1.3l-3.9,4.1c-0.4,0.3-0.9,0.3-1.3,0c-1.9-1.7-4-2.4-6.4-2.4   c-5.4,0-9.7,4.5-9.7,9.9c0,5.4,4.4,9.8,9.7,9.8c1.4,0,2.9-0.2,4.4-0.8v-2.9h-3.1c-0.5,0-0.9-0.4-0.9-0.9v-4.9   c0-0.5,0.4-0.9,0.9-0.9h9.9c0.5,0,0.9,0.4,0.9,0.9l0,13.2c0,0.2-0.2,0.6-0.4,0.8c0,0-5.1,3.2-12.2,3.2c-9.8,0-17.7-7.8-17.7-17.6   C451.8,112.9,459.7,105.1,469.4,105.1z"/>
    <path d="M502.6,106.4c0-0.5,0.4-0.9,0.9-0.9h12c9.5,0,17.3,7.7,17.3,17.2c0,9.5-7.8,17.3-17.3,17.3h-12c-0.5,0-0.9-0.4-0.9-0.9   V106.4z M515,132.6c5.6,0,9.6-4.4,9.6-10c0-5.6-4-9.9-9.6-9.9h-4.7v19.9H515z"/>
    <path d="M538.7,106.4c0-0.5,0.4-0.9,0.9-0.9H560c0.5,0,0.9,0.4,0.9,0.9v5.4c0,0.5-0.4,0.9-0.9,0.9h-13.6v6.1h11.2   c0.5,0,0.9,0.4,0.9,0.9v5.4c0,0.5-0.4,0.9-0.9,0.9h-11.2v6.6H560c0.5,0,0.9,0.4,0.9,0.9v5.4c0,0.5-0.4,0.9-0.9,0.9h-20.4   c-0.5,0-0.9-0.4-0.9-0.9V106.4z"/>
    <path d="M567.6,106.4c0-0.5,0.4-0.9,0.9-0.9h14.7c5.9,0,10.7,4.8,10.7,10.6c0,4.5-3,8.2-7.3,9.9l6.7,12.5c0.3,0.6,0,1.4-0.8,1.4   H586c-0.4,0-0.7-0.2-0.8-0.4l-6.5-13h-3.4V139c0,0.5-0.4,0.9-0.9,0.9h-5.9c-0.5,0-0.9-0.4-0.9-0.9V106.4z M582.6,120.2   c2,0,3.7-1.9,3.7-3.9c0-2.1-1.7-3.7-3.7-3.7h-7.3v7.7H582.6z"/>
    <path d="M313.1,166.5c9.8,0,17.7,7.9,17.7,17.8c0,9.8-7.9,17.7-17.7,17.7c-9.8,0-17.7-7.8-17.7-17.7   C295.4,174.4,303.3,166.5,313.1,166.5z M303.1,160.2c0-1.9,1.5-3.4,3.4-3.4c1.9,0,3.5,1.5,3.5,3.4s-1.6,3.5-3.5,3.5   C304.6,163.7,303.1,162.1,303.1,160.2z M313.1,194c5.4,0,9.8-4.4,9.8-9.8c0-5.4-4.4-9.9-9.8-9.9c-5.4,0-9.8,4.5-9.8,9.9   C303.3,189.6,307.7,194,313.1,194z M316.1,160.2c0-1.9,1.5-3.4,3.4-3.4s3.5,1.5,3.5,3.4s-1.6,3.5-3.5,3.5S316.1,162.1,316.1,160.2z   "/>
    <path d="M334.8,196.8l2.3-4.1c0.4-0.6,1.3-0.5,1.7-0.3c0.2,0.1,3.7,2.7,7,2.7c2,0,3.4-1.2,3.4-3c0-2.1-1.7-3.6-5.1-5   c-4.2-1.7-9.5-5-9.5-10.9c0-4.9,3.8-9.8,11.4-9.8c5.1,0,9,2.6,10.5,3.7c0.6,0.3,0.5,1.2,0.3,1.6l-2.5,3.8c-0.3,0.5-1.2,1-1.7,0.6   c-0.4-0.2-4-3-7-3c-1.8,0-3.1,1.2-3.1,2.5c0,1.8,1.5,3.2,5.4,4.8c3.8,1.5,9.9,4.5,9.9,11.2c0,5.1-4.4,10.2-11.6,10.2   c-6.4,0-9.9-2.7-11.1-3.8C334.5,197.6,334.4,197.4,334.8,196.8z"/>
    <path d="M368.1,174.2h-7c-0.5,0-0.9-0.4-0.9-0.9v-5.4c0-0.5,0.4-0.9,0.9-0.9h21.8c0.5,0,0.9,0.4,0.9,0.9v5.4c0,0.5-0.4,0.9-0.9,0.9   h-7v26.3c0,0.5-0.4,0.9-0.9,0.9h-5.9c-0.5,0-0.9-0.4-0.9-0.9V174.2z"/>
    <path d="M388.8,167.9c0-0.5,0.4-0.9,0.9-0.9h20.4c0.5,0,0.9,0.4,0.9,0.9v5.4c0,0.5-0.4,0.9-0.9,0.9h-13.6v6.1h11.2   c0.5,0,0.9,0.4,0.9,0.9v5.4c0,0.5-0.4,0.9-0.9,0.9h-11.2v6.6h13.6c0.5,0,0.9,0.4,0.9,0.9v5.4c0,0.5-0.4,0.9-0.9,0.9h-20.4   c-0.5,0-0.9-0.4-0.9-0.9V167.9z"/>
    <path d="M417.6,167.9c0-0.5,0.4-0.9,0.9-0.9h14.7c5.9,0,10.7,4.8,10.7,10.6c0,4.5-3,8.2-7.3,9.9l6.7,12.5c0.3,0.6,0,1.4-0.8,1.4   H436c-0.4,0-0.7-0.2-0.8-0.4l-6.5-13h-3.4v12.5c0,0.5-0.4,0.9-0.9,0.9h-5.9c-0.5,0-0.9-0.4-0.9-0.9V167.9z M432.6,181.7   c2,0,3.7-1.9,3.7-3.9c0-2.1-1.7-3.7-3.7-3.7h-7.3v7.7H432.6z"/>
    <path d="M450.6,167.9c0-0.5,0.4-0.9,0.9-0.9h14.7c5.9,0,10.7,4.8,10.7,10.6c0,4.5-3,8.2-7.3,9.9l6.7,12.5c0.3,0.6,0,1.4-0.8,1.4   H469c-0.4,0-0.7-0.2-0.8-0.4l-6.5-13h-3.4v12.5c0,0.5-0.4,0.9-0.9,0.9h-5.9c-0.5,0-0.9-0.4-0.9-0.9V167.9z M465.6,181.7   c2,0,3.7-1.9,3.7-3.9c0-2.1-1.7-3.7-3.7-3.7h-7.3v7.7H465.6z"/>
    <path d="M483.5,167.9c0-0.5,0.4-0.9,0.9-0.9h20.4c0.5,0,0.9,0.4,0.9,0.9v5.4c0,0.5-0.4,0.9-0.9,0.9h-13.6v6.1h11.2   c0.5,0,0.9,0.4,0.9,0.9v5.4c0,0.5-0.4,0.9-0.9,0.9h-11.2v6.6h13.6c0.5,0,0.9,0.4,0.9,0.9v5.4c0,0.5-0.4,0.9-0.9,0.9h-20.4   c-0.5,0-0.9-0.4-0.9-0.9V167.9z"/>
    <path d="M512.3,167.9c0-0.5,0.4-0.9,0.9-0.9h5.9c0.5,0,0.9,0.4,0.9,0.9v32.6c0,0.5-0.4,0.9-0.9,0.9h-5.9c-0.5,0-0.9-0.4-0.9-0.9   V167.9z"/>
    <path d="M543.8,166.5c4.9,0,8.6,1.5,11.9,4.6c0.4,0.4,0.4,1,0,1.4l-3.8,4c-0.3,0.3-0.9,0.3-1.2,0c-1.8-1.6-4.2-2.5-6.6-2.5   c-5.6,0-9.6,4.6-9.6,10.1c0,5.5,4.1,10,9.7,10c2.3,0,4.8-0.8,6.6-2.4c0.3-0.3,1-0.3,1.3,0l3.8,4.1c0.3,0.3,0.3,1,0,1.3   c-3.3,3.2-7.6,4.8-12,4.8c-9.8,0-17.8-7.8-17.8-17.7C526.1,174.4,534,166.5,543.8,166.5z"/>
    <path d="M561.7,167.9c0-0.5,0.4-0.9,0.9-0.9h5.9c0.5,0,0.9,0.4,0.9,0.9v12.4h14.1v-12.4c0-0.5,0.4-0.9,0.9-0.9h5.9   c0.5,0,0.9,0.4,0.9,0.9v32.6c0,0.5-0.4,0.9-0.9,0.9h-5.9c-0.5,0-0.9-0.4-0.9-0.9v-12.9h-14.1v12.9c0,0.5-0.4,0.9-0.9,0.9h-5.9   c-0.5,0-0.9-0.4-0.9-0.9V167.9z"/>
    <path d="M599.6,167.9c0-0.5,0.4-0.9,0.9-0.9h5.9c0.5,0,0.9,0.4,0.9,0.9v32.6c0,0.5-0.4,0.9-0.9,0.9h-5.9c-0.5,0-0.9-0.4-0.9-0.9   V167.9z"/>
    <path d="M613.9,196.8l2.3-4.1c0.4-0.6,1.3-0.5,1.7-0.3c0.2,0.1,3.7,2.7,7,2.7c2,0,3.4-1.2,3.4-3c0-2.1-1.7-3.6-5.1-5   c-4.2-1.7-9.5-5-9.5-10.9c0-4.9,3.8-9.8,11.4-9.8c5.1,0,9,2.6,10.5,3.7c0.6,0.3,0.5,1.2,0.3,1.6l-2.5,3.8c-0.3,0.5-1.2,1-1.7,0.6   c-0.4-0.2-4-3-7-3c-1.8,0-3.1,1.2-3.1,2.5c0,1.8,1.5,3.2,5.4,4.8c3.8,1.5,9.9,4.5,9.9,11.2c0,5.1-4.4,10.2-11.6,10.2   c-6.4,0-9.9-2.7-11.1-3.8C613.7,197.6,613.5,197.4,613.9,196.8z"/>
    <path d="M658.1,166.5c4.9,0,8.6,1.5,11.9,4.6c0.4,0.4,0.4,1,0,1.4l-3.8,4c-0.3,0.3-0.9,0.3-1.2,0c-1.8-1.6-4.2-2.5-6.6-2.5   c-5.6,0-9.6,4.6-9.6,10.1c0,5.5,4.1,10,9.7,10c2.3,0,4.8-0.8,6.6-2.4c0.3-0.3,1-0.3,1.3,0l3.8,4.1c0.3,0.3,0.3,1,0,1.3   c-3.3,3.2-7.6,4.8-12,4.8c-9.8,0-17.8-7.8-17.8-17.7C640.3,174.4,648.2,166.5,658.1,166.5z"/>
    <path d="M675.9,167.9c0-0.5,0.4-0.9,0.9-0.9h5.9c0.5,0,0.9,0.4,0.9,0.9v12.4h14.1v-12.4c0-0.5,0.4-0.9,0.9-0.9h5.9   c0.5,0,0.9,0.4,0.9,0.9v32.6c0,0.5-0.4,0.9-0.9,0.9h-5.9c-0.5,0-0.9-0.4-0.9-0.9v-12.9h-14.1v12.9c0,0.5-0.4,0.9-0.9,0.9h-5.9   c-0.5,0-0.9-0.4-0.9-0.9V167.9z"/>
    <path d="M712.9,167.9c0-0.5,0.4-0.9,0.9-0.9h20.4c0.5,0,0.9,0.4,0.9,0.9v5.4c0,0.5-0.4,0.9-0.9,0.9h-13.6v6.1h11.2   c0.5,0,0.9,0.4,0.9,0.9v5.4c0,0.5-0.4,0.9-0.9,0.9h-11.2v6.6h13.6c0.5,0,0.9,0.4,0.9,0.9v5.4c0,0.5-0.4,0.9-0.9,0.9h-20.4   c-0.5,0-0.9-0.4-0.9-0.9V167.9z"/>
    <path d="M741.7,167.4c0-0.5,0.4-0.9,0.9-0.9h1.2l19.6,18.9h0v-17.5c0-0.5,0.4-0.9,0.9-0.9h5.9c0.5,0,0.9,0.4,0.9,0.9V201   c0,0.5-0.4,0.9-0.9,0.9h-0.8c-0.1,0-0.5-0.1-0.6-0.2l-19.4-19.5h0v18.3c0,0.5-0.4,0.9-0.9,0.9h-5.9c-0.5,0-0.9-0.4-0.9-0.9   L741.7,167.4z"/>
    <path d="M295.5,261.6l15.4-33.1c0.1-0.3,0.5-0.5,0.8-0.5h0.5c0.3,0,0.7,0.2,0.8,0.5l15.4,33.1c0.3,0.6-0.1,1.3-0.8,1.3h-5.5   c-0.9,0-1.3-0.3-1.7-1.2l-1.8-3.9h-13.4l-1.8,3.9c-0.2,0.6-0.8,1.2-1.8,1.2h-5.4C295.6,262.9,295.2,262.3,295.5,261.6z    M315.7,251.1L312,243h0l-3.7,8.1H315.7z"/>
    <path d="M332.5,229.7c0-0.6,0.5-1.2,1.2-1.2h5.8c0.6,0,1.2,0.5,1.2,1.2v12.9l10.9-13.6c0.2-0.2,0.6-0.5,0.9-0.5h6.2   c0.9,0,1.4,1.1,0.9,1.8L348,244.7l12.5,16.3c0.5,0.7,0,1.8-0.9,1.8h-6.8c-0.3,0-0.8-0.2-0.9-0.3l-11.4-15.4v14.7   c0,0.6-0.5,1.2-1.2,1.2h-5.8c-0.7,0-1.2-0.5-1.2-1.2V229.7z"/>
    <path d="M363.1,261.6l15.4-33.1c0.1-0.3,0.5-0.5,0.8-0.5h0.5c0.3,0,0.7,0.2,0.8,0.5l15.4,33.1c0.3,0.6-0.1,1.3-0.8,1.3h-5.5   c-0.9,0-1.3-0.3-1.7-1.2l-1.8-3.9h-13.4l-1.8,3.9c-0.2,0.6-0.8,1.2-1.8,1.2h-5.4C363.2,262.9,362.8,262.3,363.1,261.6z    M383.3,251.1l-3.7-8.1h0l-3.7,8.1H383.3z"/>
    <path d="M400.1,229.4c0-0.5,0.4-0.9,0.9-0.9h12c9.5,0,17.3,7.7,17.3,17.2c0,9.5-7.8,17.3-17.3,17.3h-12c-0.5,0-0.9-0.4-0.9-0.9   V229.4z M412.5,255.6c5.6,0,9.6-4.4,9.6-10c0-5.6-4-9.9-9.6-9.9h-4.7v19.9H412.5z"/>
    <path d="M435.3,229.4c0-0.5,0.4-0.9,0.9-0.9h20.4c0.5,0,0.9,0.4,0.9,0.9v5.4c0,0.5-0.4,0.9-0.9,0.9h-13.6v6.1h11.2   c0.5,0,0.9,0.4,0.9,0.9v5.4c0,0.5-0.4,0.9-0.9,0.9h-11.2v6.6h13.6c0.5,0,0.9,0.4,0.9,0.9v5.4c0,0.5-0.4,0.9-0.9,0.9h-20.4   c-0.5,0-0.9-0.4-0.9-0.9V229.4z"/>
    <path d="M467.5,228.8c0-0.4,0.5-0.8,0.9-0.8h0.8c0.2,0,0.7,0.2,0.8,0.5l11.4,21.2h0.1l11.4-21.2c0.1-0.3,0.6-0.5,0.8-0.5h0.8   c0.4,0,0.8,0.3,0.9,0.8l5.6,33c0.1,0.6-0.3,1.1-0.9,1.1h-5.8c-0.4,0-0.9-0.4-0.9-0.8l-2.2-15.2H491l-8.3,15.9   c-0.1,0.3-0.6,0.5-0.8,0.5H481c-0.3,0-0.7-0.2-0.8-0.5l-8.3-15.9h-0.1l-2.2,15.2c0,0.4-0.4,0.8-0.9,0.8h-5.8c-0.6,0-1-0.4-0.9-1.1   L467.5,228.8z"/>
    <path d="M507.3,229.4c0-0.5,0.4-0.9,0.9-0.9h5.9c0.5,0,0.9,0.4,0.9,0.9V262c0,0.5-0.4,0.9-0.9,0.9h-5.9c-0.5,0-0.9-0.4-0.9-0.9   V229.4z"/>
    <path d="M523.5,229.4c0-0.5,0.4-0.9,0.9-0.9h20.4c0.5,0,0.9,0.4,0.9,0.9v5.4c0,0.5-0.4,0.9-0.9,0.9h-13.6v6.1h11.2   c0.5,0,0.9,0.4,0.9,0.9v5.4c0,0.5-0.4,0.9-0.9,0.9h-11.2v6.6h13.6c0.5,0,0.9,0.4,0.9,0.9v5.4c0,0.5-0.4,0.9-0.9,0.9h-20.4   c-0.5,0-0.9-0.4-0.9-0.9V229.4z"/>
    <path d="M567.1,229.4c0-0.5,0.4-0.9,0.9-0.9h12c9.5,0,17.3,7.7,17.3,17.2c0,9.5-7.8,17.3-17.3,17.3h-12c-0.5,0-0.9-0.4-0.9-0.9   V229.4z M579.5,255.6c5.6,0,9.6-4.4,9.6-10c0-5.6-4-9.9-9.6-9.9h-4.7v19.9H579.5z"/>
    <path d="M602.3,229.4c0-0.5,0.4-0.9,0.9-0.9h20.4c0.5,0,0.9,0.4,0.9,0.9v5.4c0,0.5-0.4,0.9-0.9,0.9H610v6.1h11.2   c0.5,0,0.9,0.4,0.9,0.9v5.4c0,0.5-0.4,0.9-0.9,0.9H610v6.6h13.6c0.5,0,0.9,0.4,0.9,0.9v5.4c0,0.5-0.4,0.9-0.9,0.9h-20.4   c-0.5,0-0.9-0.4-0.9-0.9V229.4z"/>
    <path d="M632.1,229.4c0-0.5,0.4-0.9,0.9-0.9h14.7c5.9,0,10.7,4.8,10.7,10.6c0,4.5-3,8.2-7.3,9.9l6.7,12.5c0.3,0.6,0,1.4-0.8,1.4   h-6.5c-0.4,0-0.7-0.2-0.8-0.4l-6.5-13h-3.4V262c0,0.5-0.4,0.9-0.9,0.9H633c-0.5,0-0.9-0.4-0.9-0.9V229.4z M647.1,243.2   c2,0,3.7-1.9,3.7-3.9c0-2.1-1.7-3.7-3.7-3.7h-7.3v7.7H647.1z"/>
    <path d="M296.9,291.2c-0.2-0.7,0.2-1.2,0.9-1.2h5.8c0.4,0,0.8,0.3,0.9,0.7l4.2,16.7h0.2l7.6-17.3c0.1-0.3,0.4-0.5,0.8-0.5h0.9   c0.4,0,0.7,0.2,0.8,0.5l7.6,17.3h0.2l4.2-16.7c0.1-0.3,0.5-0.7,0.9-0.7h5.8c0.7,0,1.1,0.5,0.9,1.2l-9.3,33   c-0.1,0.4-0.5,0.7-0.9,0.7h-0.8c-0.3,0-0.7-0.2-0.8-0.5l-9-20.1h-0.1l-9,20.1c-0.1,0.3-0.5,0.5-0.8,0.5H307c-0.4,0-0.8-0.3-0.9-0.7   L296.9,291.2z"/>
    <path d="M343.8,290.9c0-0.5,0.4-0.9,0.9-0.9h5.9c0.5,0,0.9,0.4,0.9,0.9v32.6c0,0.5-0.4,0.9-0.9,0.9h-5.9c-0.5,0-0.9-0.4-0.9-0.9   V290.9z"/>
    <path d="M358.1,319.8l2.3-4.1c0.4-0.6,1.3-0.5,1.7-0.3c0.2,0.1,3.7,2.7,7,2.7c2,0,3.4-1.2,3.4-3c0-2.1-1.7-3.6-5.1-5   c-4.2-1.7-9.5-5-9.5-10.9c0-4.9,3.8-9.8,11.4-9.8c5.1,0,9,2.6,10.5,3.7c0.6,0.3,0.5,1.2,0.3,1.6l-2.5,3.8c-0.3,0.5-1.2,1-1.7,0.6   c-0.4-0.2-4-3-7-3c-1.8,0-3.1,1.2-3.1,2.5c0,1.8,1.5,3.2,5.4,4.8c3.8,1.5,9.9,4.5,9.9,11.2c0,5.1-4.4,10.2-11.6,10.2   c-6.4,0-9.9-2.7-11.1-3.8C357.8,320.6,357.7,320.4,358.1,319.8z"/>
    <path d="M385,319.8l2.3-4.1c0.4-0.6,1.3-0.5,1.7-0.3c0.2,0.1,3.7,2.7,7,2.7c2,0,3.4-1.2,3.4-3c0-2.1-1.7-3.6-5.1-5   c-4.2-1.7-9.5-5-9.5-10.9c0-4.9,3.8-9.8,11.4-9.8c5.1,0,9,2.6,10.5,3.7c0.6,0.3,0.5,1.2,0.3,1.6l-2.5,3.8c-0.3,0.5-1.2,1-1.7,0.6   c-0.4-0.2-4-3-7-3c-1.8,0-3.1,1.2-3.1,2.5c0,1.8,1.5,3.2,5.4,4.8c3.8,1.5,9.9,4.5,9.9,11.2c0,5.1-4.4,10.2-11.6,10.2   c-6.4,0-9.9-2.7-11.1-3.8C384.8,320.6,384.7,320.4,385,319.8z"/>
    <path d="M414,290.9c0-0.5,0.4-0.9,0.9-0.9h20.4c0.5,0,0.9,0.4,0.9,0.9v5.4c0,0.5-0.4,0.9-0.9,0.9h-13.6v6.1h11.2   c0.5,0,0.9,0.4,0.9,0.9v5.4c0,0.5-0.4,0.9-0.9,0.9h-11.2v6.6h13.6c0.5,0,0.9,0.4,0.9,0.9v5.4c0,0.5-0.4,0.9-0.9,0.9h-20.4   c-0.5,0-0.9-0.4-0.9-0.9V290.9z"/>
    <path d="M442.7,290.4c0-0.5,0.4-0.9,0.9-0.9h1.2l19.6,18.9h0v-17.5c0-0.5,0.4-0.9,0.9-0.9h5.9c0.5,0,0.9,0.4,0.9,0.9V324   c0,0.5-0.4,0.9-0.9,0.9h-0.8c-0.1,0-0.5-0.1-0.6-0.2l-19.4-19.5h0v18.3c0,0.5-0.4,0.9-0.9,0.9h-5.9c-0.5,0-0.9-0.4-0.9-0.9   L442.7,290.4z"/>
    <path d="M478.8,319.8l2.3-4.1c0.4-0.6,1.3-0.5,1.7-0.3c0.2,0.1,3.7,2.7,7,2.7c2,0,3.4-1.2,3.4-3c0-2.1-1.7-3.6-5.1-5   c-4.2-1.7-9.5-5-9.5-10.9c0-4.9,3.8-9.8,11.4-9.8c5.1,0,9,2.6,10.5,3.7c0.6,0.3,0.5,1.2,0.3,1.6l-2.5,3.8c-0.3,0.5-1.2,1-1.7,0.6   c-0.4-0.2-4-3-7-3c-1.8,0-3.1,1.2-3.1,2.5c0,1.8,1.5,3.2,5.4,4.8c3.8,1.5,9.9,4.5,9.9,11.2c0,5.1-4.4,10.2-11.6,10.2   c-6.4,0-9.9-2.7-11.1-3.8C478.6,320.6,478.5,320.4,478.8,319.8z"/>
    <path d="M523,289.5c4.9,0,8.6,1.5,11.9,4.6c0.4,0.4,0.4,1,0,1.4l-3.8,4c-0.3,0.3-0.9,0.3-1.2,0c-1.8-1.6-4.2-2.5-6.6-2.5   c-5.6,0-9.6,4.6-9.6,10.1c0,5.5,4.1,10,9.7,10c2.3,0,4.8-0.8,6.6-2.4c0.3-0.3,1-0.3,1.3,0l3.8,4.1c0.3,0.3,0.3,1,0,1.3   c-3.3,3.2-7.6,4.8-12,4.8c-9.8,0-17.8-7.8-17.8-17.7C505.3,297.4,513.2,289.5,523,289.5z"/>
    <path d="M540.9,290.9c0-0.5,0.4-0.9,0.9-0.9h5.9c0.5,0,0.9,0.4,0.9,0.9v12.4h14.1v-12.4c0-0.5,0.4-0.9,0.9-0.9h5.9   c0.5,0,0.9,0.4,0.9,0.9v32.6c0,0.5-0.4,0.9-0.9,0.9h-5.9c-0.5,0-0.9-0.4-0.9-0.9v-12.9h-14.1v12.9c0,0.5-0.4,0.9-0.9,0.9h-5.9   c-0.5,0-0.9-0.4-0.9-0.9V290.9z"/>
    <path d="M574.4,323.1l15.4-33.1c0.1-0.3,0.5-0.5,0.8-0.5h0.5c0.3,0,0.7,0.2,0.8,0.5l15.4,33.1c0.3,0.6-0.1,1.3-0.8,1.3h-5.5   c-0.9,0-1.3-0.3-1.7-1.2l-1.8-3.9h-13.4l-1.8,3.9c-0.2,0.6-0.8,1.2-1.8,1.2h-5.4C574.5,324.4,574.1,323.8,574.4,323.1z    M594.6,312.6l-3.7-8.1h0l-3.7,8.1H594.6z"/>
    <path d="M611.4,290.9c0-0.5,0.4-0.9,0.9-0.9h20.4c0.5,0,0.9,0.4,0.9,0.9v5.4c0,0.5-0.4,0.9-0.9,0.9h-13.6v7.1h11.2   c0.5,0,0.9,0.4,0.9,0.9v5.4c0,0.5-0.4,0.9-0.9,0.9h-11.2v12c0,0.5-0.4,0.9-0.9,0.9h-5.8c-0.5,0-0.9-0.4-0.9-0.9V290.9z"/>
    <path d="M646.5,297.2h-7c-0.5,0-0.9-0.4-0.9-0.9v-5.4c0-0.5,0.4-0.9,0.9-0.9h21.8c0.5,0,0.9,0.4,0.9,0.9v5.4c0,0.5-0.4,0.9-0.9,0.9   h-7v26.3c0,0.5-0.4,0.9-0.9,0.9h-5.9c-0.5,0-0.9-0.4-0.9-0.9V297.2z"/>
    <path d="M667.1,290.9c0-0.5,0.4-0.9,0.9-0.9h20.4c0.5,0,0.9,0.4,0.9,0.9v5.4c0,0.5-0.4,0.9-0.9,0.9h-13.6v6.1H686   c0.5,0,0.9,0.4,0.9,0.9v5.4c0,0.5-0.4,0.9-0.9,0.9h-11.2v6.6h13.6c0.5,0,0.9,0.4,0.9,0.9v5.4c0,0.5-0.4,0.9-0.9,0.9h-20.4   c-0.5,0-0.9-0.4-0.9-0.9V290.9z"/>
    <path d="M694.9,290.4c0-0.5,0.4-0.9,0.9-0.9h1.2l19.6,18.9h0v-17.5c0-0.5,0.4-0.9,0.9-0.9h5.9c0.5,0,0.9,0.4,0.9,0.9V324   c0,0.5-0.4,0.9-0.9,0.9h-0.8c-0.1,0-0.5-0.1-0.6-0.2l-19.4-19.5h0v18.3c0,0.5-0.4,0.9-0.9,0.9h-5.9c-0.5,0-0.9-0.4-0.9-0.9   L694.9,290.4z"/>
  </g>
  <rect class="st0" width="34.8" height="261.2"/>
  <rect x="87" class="st0" width="34.8" height="261.2"/>
</svg>